<?xml version="1.0" encoding="UTF-8" standalone="no"?>
<!-- Created with Inkscape (http://www.inkscape.org/) -->

<svg
   xmlns:dc="http://purl.org/dc/elements/1.1/"
   xmlns:cc="http://creativecommons.org/ns#"
   xmlns:rdf="http://www.w3.org/1999/02/22-rdf-syntax-ns#"
   xmlns:svg="http://www.w3.org/2000/svg"
   xmlns="http://www.w3.org/2000/svg"
   version="1.1"
   width="450"
   height="315"
   id="svg2"
   xml:space="preserve"><metadata
     id="metadata8"><rdf:RDF><cc:Work
         rdf:about=""><dc:format>image/svg+xml</dc:format><dc:type
           rdf:resource="http://purl.org/dc/dcmitype/StillImage" /><dc:title></dc:title></cc:Work></rdf:RDF></metadata><defs
     id="defs6" /><g
     transform="matrix(1.25,0,0,-1.25,0,315)"
     id="g10"><g
       transform="scale(0.1,0.1)"
       id="g12"><path
         d="m 660,384 2723.5,0"
         id="path14"
         style="fill:none;stroke:#6b6b6b;stroke-width:1.25;stroke-linecap:butt;stroke-linejoin:miter;stroke-miterlimit:3.79999995;stroke-opacity:1;stroke-dasharray:5, 10;stroke-dashoffset:0" /><path
         d="m 660,384 31.5,0 m 2692,0 -31.5,0"
         id="path16"
         style="fill:none;stroke:#6b6b6b;stroke-width:7.5;stroke-linecap:butt;stroke-linejoin:miter;stroke-miterlimit:3.79999995;stroke-opacity:1;stroke-dasharray:none" /><g
         transform="scale(10,10)"
         id="g18"><text
           transform="matrix(1,0,0,-1,52.1282,34.4)"
           id="text20"><tspan
             x="0"
             y="0"
             id="tspan22"
             style="font-size:12px;font-variant:normal;font-weight:normal;writing-mode:lr-tb;fill:#6b6b6b;fill-opacity:1;fill-rule:nonzero;stroke:none;font-family:Helvetica;-inkscape-font-specification:Helvetica">0</tspan></text>
</g><path
         d="m 660,581.5 2723.5,0"
         id="path24"
         style="fill:none;stroke:#6b6b6b;stroke-width:1.25;stroke-linecap:butt;stroke-linejoin:miter;stroke-miterlimit:3.79999995;stroke-opacity:1;stroke-dasharray:5, 10;stroke-dashoffset:0" /><path
         d="m 660,581.5 31.5,0 m 2692,0 -31.5,0"
         id="path26"
         style="fill:none;stroke:#6b6b6b;stroke-width:7.5;stroke-linecap:butt;stroke-linejoin:miter;stroke-miterlimit:3.79999995;stroke-opacity:1;stroke-dasharray:none" /><g
         transform="scale(10,10)"
         id="g28"><text
           transform="matrix(1,0,0,-1,38.7844,54.15)"
           id="text30"><tspan
             x="0 6.6719999 13.344"
             y="0"
             id="tspan32"
             style="font-size:12px;font-variant:normal;font-weight:normal;writing-mode:lr-tb;fill:#6b6b6b;fill-opacity:1;fill-rule:nonzero;stroke:none;font-family:Helvetica;-inkscape-font-specification:Helvetica">200</tspan></text>
</g><path
         d="m 660,778.5 2723.5,0"
         id="path34"
         style="fill:none;stroke:#6b6b6b;stroke-width:1.25;stroke-linecap:butt;stroke-linejoin:miter;stroke-miterlimit:3.79999995;stroke-opacity:1;stroke-dasharray:5, 10;stroke-dashoffset:0" /><path
         d="m 660,778.5 31.5,0 m 2692,0 -31.5,0"
         id="path36"
         style="fill:none;stroke:#6b6b6b;stroke-width:7.5;stroke-linecap:butt;stroke-linejoin:miter;stroke-miterlimit:3.79999995;stroke-opacity:1;stroke-dasharray:none" /><g
         transform="scale(10,10)"
         id="g38"><text
           transform="matrix(1,0,0,-1,38.7844,73.85)"
           id="text40"><tspan
             x="0 6.6719999 13.344"
             y="0"
             id="tspan42"
             style="font-size:12px;font-variant:normal;font-weight:normal;writing-mode:lr-tb;fill:#6b6b6b;fill-opacity:1;fill-rule:nonzero;stroke:none;font-family:Helvetica;-inkscape-font-specification:Helvetica">400</tspan></text>
</g><path
         d="m 660,976 2723.5,0"
         id="path44"
         style="fill:none;stroke:#6b6b6b;stroke-width:1.25;stroke-linecap:butt;stroke-linejoin:miter;stroke-miterlimit:3.79999995;stroke-opacity:1;stroke-dasharray:5, 10;stroke-dashoffset:0" /><path
         d="m 660,976 31.5,0 m 2692,0 -31.5,0"
         id="path46"
         style="fill:none;stroke:#6b6b6b;stroke-width:7.5;stroke-linecap:butt;stroke-linejoin:miter;stroke-miterlimit:3.79999995;stroke-opacity:1;stroke-dasharray:none" /><g
         transform="scale(10,10)"
         id="g48"><text
           transform="matrix(1,0,0,-1,38.7844,93.6)"
           id="text50"><tspan
             x="0 6.6719999 13.344"
             y="0"
             id="tspan52"
             style="font-size:12px;font-variant:normal;font-weight:normal;writing-mode:lr-tb;fill:#6b6b6b;fill-opacity:1;fill-rule:nonzero;stroke:none;font-family:Helvetica;-inkscape-font-specification:Helvetica">600</tspan></text>
</g><path
         d="m 660,1173 2723.5,0"
         id="path54"
         style="fill:none;stroke:#6b6b6b;stroke-width:1.25;stroke-linecap:butt;stroke-linejoin:miter;stroke-miterlimit:3.79999995;stroke-opacity:1;stroke-dasharray:5, 10;stroke-dashoffset:0" /><path
         d="m 660,1173 31.5,0 m 2692,0 -31.5,0"
         id="path56"
         style="fill:none;stroke:#6b6b6b;stroke-width:7.5;stroke-linecap:butt;stroke-linejoin:miter;stroke-miterlimit:3.79999995;stroke-opacity:1;stroke-dasharray:none" /><g
         transform="scale(10,10)"
         id="g58"><text
           transform="matrix(1,0,0,-1,38.7844,113.3)"
           id="text60"><tspan
             x="0 6.6719999 13.344"
             y="0"
             id="tspan62"
             style="font-size:12px;font-variant:normal;font-weight:normal;writing-mode:lr-tb;fill:#6b6b6b;fill-opacity:1;fill-rule:nonzero;stroke:none;font-family:Helvetica;-inkscape-font-specification:Helvetica">800</tspan></text>
</g><path
         d="m 660,1370.5 2723.5,0"
         id="path64"
         style="fill:none;stroke:#6b6b6b;stroke-width:1.25;stroke-linecap:butt;stroke-linejoin:miter;stroke-miterlimit:3.79999995;stroke-opacity:1;stroke-dasharray:5, 10;stroke-dashoffset:0" /><path
         d="m 660,1370.5 31.5,0 m 2692,0 -31.5,0"
         id="path66"
         style="fill:none;stroke:#6b6b6b;stroke-width:7.5;stroke-linecap:butt;stroke-linejoin:miter;stroke-miterlimit:3.79999995;stroke-opacity:1;stroke-dasharray:none" /><g
         transform="scale(10,10)"
         id="g68"><text
           transform="matrix(1,0,0,-1,32.1126,133.05)"
           id="text70"><tspan
             x="0 6.6719999 13.344 20.016001"
             y="0"
             id="tspan72"
             style="font-size:12px;font-variant:normal;font-weight:normal;writing-mode:lr-tb;fill:#6b6b6b;fill-opacity:1;fill-rule:nonzero;stroke:none;font-family:Helvetica;-inkscape-font-specification:Helvetica">1000</tspan></text>
</g><path
         d="m 660,1567.5 2723.5,0"
         id="path74"
         style="fill:none;stroke:#6b6b6b;stroke-width:1.25;stroke-linecap:butt;stroke-linejoin:miter;stroke-miterlimit:3.79999995;stroke-opacity:1;stroke-dasharray:5, 10;stroke-dashoffset:0" /><path
         d="m 660,1567.5 31.5,0 m 2692,0 -31.5,0"
         id="path76"
         style="fill:none;stroke:#6b6b6b;stroke-width:7.5;stroke-linecap:butt;stroke-linejoin:miter;stroke-miterlimit:3.79999995;stroke-opacity:1;stroke-dasharray:none" /><g
         transform="scale(10,10)"
         id="g78"><text
           transform="matrix(1,0,0,-1,32.1126,152.75)"
           id="text80"><tspan
             x="0 6.6719999 13.344 20.016001"
             y="0"
             id="tspan82"
             style="font-size:12px;font-variant:normal;font-weight:normal;writing-mode:lr-tb;fill:#6b6b6b;fill-opacity:1;fill-rule:nonzero;stroke:none;font-family:Helvetica;-inkscape-font-specification:Helvetica">1200</tspan></text>
</g><path
         d="m 660,1765 2723.5,0"
         id="path84"
         style="fill:none;stroke:#6b6b6b;stroke-width:1.25;stroke-linecap:butt;stroke-linejoin:miter;stroke-miterlimit:3.79999995;stroke-opacity:1;stroke-dasharray:5, 10;stroke-dashoffset:0" /><path
         d="m 660,1765 31.5,0 m 2692,0 -31.5,0"
         id="path86"
         style="fill:none;stroke:#6b6b6b;stroke-width:7.5;stroke-linecap:butt;stroke-linejoin:miter;stroke-miterlimit:3.79999995;stroke-opacity:1;stroke-dasharray:none" /><g
         transform="scale(10,10)"
         id="g88"><text
           transform="matrix(1,0,0,-1,32.1126,172.5)"
           id="text90"><tspan
             x="0 6.6719999 13.344 20.016001"
             y="0"
             id="tspan92"
             style="font-size:12px;font-variant:normal;font-weight:normal;writing-mode:lr-tb;fill:#6b6b6b;fill-opacity:1;fill-rule:nonzero;stroke:none;font-family:Helvetica;-inkscape-font-specification:Helvetica">1400</tspan></text>
</g><path
         d="m 660,1962 72,0 m 1471.5,0 1180,0"
         id="path94"
         style="fill:none;stroke:#6b6b6b;stroke-width:1.25;stroke-linecap:butt;stroke-linejoin:miter;stroke-miterlimit:3.79999995;stroke-opacity:1;stroke-dasharray:5, 10;stroke-dashoffset:0" /><path
         d="m 660,1962 31.5,0 m 2692,0 -31.5,0"
         id="path96"
         style="fill:none;stroke:#6b6b6b;stroke-width:7.5;stroke-linecap:butt;stroke-linejoin:miter;stroke-miterlimit:3.79999995;stroke-opacity:1;stroke-dasharray:none" /><g
         transform="scale(10,10)"
         id="g98"><text
           transform="matrix(1,0,0,-1,32.1126,192.2)"
           id="text100"><tspan
             x="0 6.6719999 13.344 20.016001"
             y="0"
             id="tspan102"
             style="font-size:12px;font-variant:normal;font-weight:normal;writing-mode:lr-tb;fill:#6b6b6b;fill-opacity:1;fill-rule:nonzero;stroke:none;font-family:Helvetica;-inkscape-font-specification:Helvetica">1600</tspan></text>
</g><path
         d="m 660,2159.5 2723.5,0"
         id="path104"
         style="fill:none;stroke:#6b6b6b;stroke-width:1.25;stroke-linecap:butt;stroke-linejoin:miter;stroke-miterlimit:3.79999995;stroke-opacity:1;stroke-dasharray:5, 10;stroke-dashoffset:0" /><path
         d="m 660,2159.5 31.5,0 m 2692,0 -31.5,0"
         id="path106"
         style="fill:none;stroke:#6b6b6b;stroke-width:7.5;stroke-linecap:butt;stroke-linejoin:miter;stroke-miterlimit:3.79999995;stroke-opacity:1;stroke-dasharray:none" /><g
         transform="scale(10,10)"
         id="g108"><text
           transform="matrix(1,0,0,-1,32.1126,211.95)"
           id="text110"><tspan
             x="0 6.6719999 13.344 20.016001"
             y="0"
             id="tspan112"
             style="font-size:12px;font-variant:normal;font-weight:normal;writing-mode:lr-tb;fill:#6b6b6b;fill-opacity:1;fill-rule:nonzero;stroke:none;font-family:Helvetica;-inkscape-font-specification:Helvetica">1800</tspan></text>
</g><path
         d="m 778.5,384 0,1384 m 0,360 0,31.5"
         id="path114"
         style="fill:none;stroke:#6b6b6b;stroke-width:1.25;stroke-linecap:butt;stroke-linejoin:miter;stroke-miterlimit:3.79999995;stroke-opacity:1;stroke-dasharray:5, 10;stroke-dashoffset:0" /><path
         d="m 778.5,384 0,31.5 m 0,1744 0,-31.5"
         id="path116"
         style="fill:none;stroke:#6b6b6b;stroke-width:7.5;stroke-linecap:butt;stroke-linejoin:miter;stroke-miterlimit:3.79999995;stroke-opacity:1;stroke-dasharray:none" /><g
         transform="scale(10,10)"
         id="g118"><text
           transform="matrix(1,0,0,-1,74.5141,22.4)"
           id="text120"><tspan
             x="0"
             y="0"
             id="tspan122"
             style="font-size:12px;font-variant:normal;font-weight:normal;writing-mode:lr-tb;fill:#6b6b6b;fill-opacity:1;fill-rule:nonzero;stroke:none;font-family:Helvetica;-inkscape-font-specification:Helvetica">2</tspan></text>
</g><path
         d="m 1015,384 0,1384 m 0,360 0,31.5"
         id="path124"
         style="fill:none;stroke:#6b6b6b;stroke-width:1.25;stroke-linecap:butt;stroke-linejoin:miter;stroke-miterlimit:3.79999995;stroke-opacity:1;stroke-dasharray:5, 10;stroke-dashoffset:0" /><path
         d="m 1015,384 0,31.5 m 0,1744 0,-31.5"
         id="path126"
         style="fill:none;stroke:#6b6b6b;stroke-width:7.5;stroke-linecap:butt;stroke-linejoin:miter;stroke-miterlimit:3.79999995;stroke-opacity:1;stroke-dasharray:none" /><g
         transform="scale(10,10)"
         id="g128"><text
           transform="matrix(1,0,0,-1,98.1641,22.4)"
           id="text130"><tspan
             x="0"
             y="0"
             id="tspan132"
             style="font-size:12px;font-variant:normal;font-weight:normal;writing-mode:lr-tb;fill:#6b6b6b;fill-opacity:1;fill-rule:nonzero;stroke:none;font-family:Helvetica;-inkscape-font-specification:Helvetica">4</tspan></text>
</g><path
         d="m 1252,384 0,1384 m 0,360 0,31.5"
         id="path134"
         style="fill:none;stroke:#6b6b6b;stroke-width:1.25;stroke-linecap:butt;stroke-linejoin:miter;stroke-miterlimit:3.79999995;stroke-opacity:1;stroke-dasharray:5, 10;stroke-dashoffset:0" /><path
         d="m 1252,384 0,31.5 m 0,1744 0,-31.5"
         id="path136"
         style="fill:none;stroke:#6b6b6b;stroke-width:7.5;stroke-linecap:butt;stroke-linejoin:miter;stroke-miterlimit:3.79999995;stroke-opacity:1;stroke-dasharray:none" /><g
         transform="scale(10,10)"
         id="g138"><text
           transform="matrix(1,0,0,-1,121.864,22.4)"
           id="text140"><tspan
             x="0"
             y="0"
             id="tspan142"
             style="font-size:12px;font-variant:normal;font-weight:normal;writing-mode:lr-tb;fill:#6b6b6b;fill-opacity:1;fill-rule:nonzero;stroke:none;font-family:Helvetica;-inkscape-font-specification:Helvetica">6</tspan></text>
</g><path
         d="m 1489,384 0,1384 m 0,360 0,31.5"
         id="path144"
         style="fill:none;stroke:#6b6b6b;stroke-width:1.25;stroke-linecap:butt;stroke-linejoin:miter;stroke-miterlimit:3.79999995;stroke-opacity:1;stroke-dasharray:5, 10;stroke-dashoffset:0" /><path
         d="m 1489,384 0,31.5 m 0,1744 0,-31.5"
         id="path146"
         style="fill:none;stroke:#6b6b6b;stroke-width:7.5;stroke-linecap:butt;stroke-linejoin:miter;stroke-miterlimit:3.79999995;stroke-opacity:1;stroke-dasharray:none" /><g
         transform="scale(10,10)"
         id="g148"><text
           transform="matrix(1,0,0,-1,145.564,22.4)"
           id="text150"><tspan
             x="0"
             y="0"
             id="tspan152"
             style="font-size:12px;font-variant:normal;font-weight:normal;writing-mode:lr-tb;fill:#6b6b6b;fill-opacity:1;fill-rule:nonzero;stroke:none;font-family:Helvetica;-inkscape-font-specification:Helvetica">8</tspan></text>
</g><path
         d="m 1725.5,384 0,1384 m 0,360 0,31.5"
         id="path154"
         style="fill:none;stroke:#6b6b6b;stroke-width:1.25;stroke-linecap:butt;stroke-linejoin:miter;stroke-miterlimit:3.79999995;stroke-opacity:1;stroke-dasharray:5, 10;stroke-dashoffset:0" /><path
         d="m 1725.5,384 0,31.5 m 0,1744 0,-31.5"
         id="path156"
         style="fill:none;stroke:#6b6b6b;stroke-width:7.5;stroke-linecap:butt;stroke-linejoin:miter;stroke-miterlimit:3.79999995;stroke-opacity:1;stroke-dasharray:none" /><g
         transform="scale(10,10)"
         id="g158"><text
           transform="matrix(1,0,0,-1,165.878,22.4)"
           id="text160"><tspan
             x="0 6.6719999"
             y="0"
             id="tspan162"
             style="font-size:12px;font-variant:normal;font-weight:normal;writing-mode:lr-tb;fill:#6b6b6b;fill-opacity:1;fill-rule:nonzero;stroke:none;font-family:Helvetica;-inkscape-font-specification:Helvetica">10</tspan></text>
</g><path
         d="m 1962.5,384 0,1384 m 0,360 0,31.5"
         id="path164"
         style="fill:none;stroke:#6b6b6b;stroke-width:1.25;stroke-linecap:butt;stroke-linejoin:miter;stroke-miterlimit:3.79999995;stroke-opacity:1;stroke-dasharray:5, 10;stroke-dashoffset:0" /><path
         d="m 1962.5,384 0,31.5 m 0,1744 0,-31.5"
         id="path166"
         style="fill:none;stroke:#6b6b6b;stroke-width:7.5;stroke-linecap:butt;stroke-linejoin:miter;stroke-miterlimit:3.79999995;stroke-opacity:1;stroke-dasharray:none" /><g
         transform="scale(10,10)"
         id="g168"><text
           transform="matrix(1,0,0,-1,189.578,22.4)"
           id="text170"><tspan
             x="0 6.6719999"
             y="0"
             id="tspan172"
             style="font-size:12px;font-variant:normal;font-weight:normal;writing-mode:lr-tb;fill:#6b6b6b;fill-opacity:1;fill-rule:nonzero;stroke:none;font-family:Helvetica;-inkscape-font-specification:Helvetica">12</tspan></text>
</g><path
         d="m 2199.5,384 0,1384 m 0,360 0,31.5"
         id="path174"
         style="fill:none;stroke:#6b6b6b;stroke-width:1.25;stroke-linecap:butt;stroke-linejoin:miter;stroke-miterlimit:3.79999995;stroke-opacity:1;stroke-dasharray:5, 10;stroke-dashoffset:0" /><path
         d="m 2199.5,384 0,31.5 m 0,1744 0,-31.5"
         id="path176"
         style="fill:none;stroke:#6b6b6b;stroke-width:7.5;stroke-linecap:butt;stroke-linejoin:miter;stroke-miterlimit:3.79999995;stroke-opacity:1;stroke-dasharray:none" /><g
         transform="scale(10,10)"
         id="g178"><text
           transform="matrix(1,0,0,-1,213.278,22.4)"
           id="text180"><tspan
             x="0 6.6719999"
             y="0"
             id="tspan182"
             style="font-size:12px;font-variant:normal;font-weight:normal;writing-mode:lr-tb;fill:#6b6b6b;fill-opacity:1;fill-rule:nonzero;stroke:none;font-family:Helvetica;-inkscape-font-specification:Helvetica">14</tspan></text>
</g><path
         d="m 2436,384 0,1775.5"
         id="path184"
         style="fill:none;stroke:#6b6b6b;stroke-width:1.25;stroke-linecap:butt;stroke-linejoin:miter;stroke-miterlimit:3.79999995;stroke-opacity:1;stroke-dasharray:5, 10;stroke-dashoffset:0" /><path
         d="m 2436,384 0,31.5 m 0,1744 0,-31.5"
         id="path186"
         style="fill:none;stroke:#6b6b6b;stroke-width:7.5;stroke-linecap:butt;stroke-linejoin:miter;stroke-miterlimit:3.79999995;stroke-opacity:1;stroke-dasharray:none" /><g
         transform="scale(10,10)"
         id="g188"><text
           transform="matrix(1,0,0,-1,236.928,22.4)"
           id="text190"><tspan
             x="0 6.6719999"
             y="0"
             id="tspan192"
             style="font-size:12px;font-variant:normal;font-weight:normal;writing-mode:lr-tb;fill:#6b6b6b;fill-opacity:1;fill-rule:nonzero;stroke:none;font-family:Helvetica;-inkscape-font-specification:Helvetica">16</tspan></text>
</g><path
         d="m 2673,384 0,1775.5"
         id="path194"
         style="fill:none;stroke:#6b6b6b;stroke-width:1.25;stroke-linecap:butt;stroke-linejoin:miter;stroke-miterlimit:3.79999995;stroke-opacity:1;stroke-dasharray:5, 10;stroke-dashoffset:0" /><path
         d="m 2673,384 0,31.5 m 0,1744 0,-31.5"
         id="path196"
         style="fill:none;stroke:#6b6b6b;stroke-width:7.5;stroke-linecap:butt;stroke-linejoin:miter;stroke-miterlimit:3.79999995;stroke-opacity:1;stroke-dasharray:none" /><g
         transform="scale(10,10)"
         id="g198"><text
           transform="matrix(1,0,0,-1,260.628,22.4)"
           id="text200"><tspan
             x="0 6.6719999"
             y="0"
             id="tspan202"
             style="font-size:12px;font-variant:normal;font-weight:normal;writing-mode:lr-tb;fill:#6b6b6b;fill-opacity:1;fill-rule:nonzero;stroke:none;font-family:Helvetica;-inkscape-font-specification:Helvetica">18</tspan></text>
</g><path
         d="m 2910,384 0,1775.5"
         id="path204"
         style="fill:none;stroke:#6b6b6b;stroke-width:1.25;stroke-linecap:butt;stroke-linejoin:miter;stroke-miterlimit:3.79999995;stroke-opacity:1;stroke-dasharray:5, 10;stroke-dashoffset:0" /><path
         d="m 2910,384 0,31.5 m 0,1744 0,-31.5"
         id="path206"
         style="fill:none;stroke:#6b6b6b;stroke-width:7.5;stroke-linecap:butt;stroke-linejoin:miter;stroke-miterlimit:3.79999995;stroke-opacity:1;stroke-dasharray:none" /><g
         transform="scale(10,10)"
         id="g208"><text
           transform="matrix(1,0,0,-1,284.328,22.4)"
           id="text210"><tspan
             x="0 6.6719999"
             y="0"
             id="tspan212"
             style="font-size:12px;font-variant:normal;font-weight:normal;writing-mode:lr-tb;fill:#6b6b6b;fill-opacity:1;fill-rule:nonzero;stroke:none;font-family:Helvetica;-inkscape-font-specification:Helvetica">20</tspan></text>
</g><path
         d="m 3146.5,384 0,1775.5"
         id="path214"
         style="fill:none;stroke:#6b6b6b;stroke-width:1.25;stroke-linecap:butt;stroke-linejoin:miter;stroke-miterlimit:3.79999995;stroke-opacity:1;stroke-dasharray:5, 10;stroke-dashoffset:0" /><path
         d="m 3146.5,384 0,31.5 m 0,1744 0,-31.5"
         id="path216"
         style="fill:none;stroke:#6b6b6b;stroke-width:7.5;stroke-linecap:butt;stroke-linejoin:miter;stroke-miterlimit:3.79999995;stroke-opacity:1;stroke-dasharray:none" /><g
         transform="scale(10,10)"
         id="g218"><text
           transform="matrix(1,0,0,-1,307.978,22.4)"
           id="text220"><tspan
             x="0 6.6719999"
             y="0"
             id="tspan222"
             style="font-size:12px;font-variant:normal;font-weight:normal;writing-mode:lr-tb;fill:#6b6b6b;fill-opacity:1;fill-rule:nonzero;stroke:none;font-family:Helvetica;-inkscape-font-specification:Helvetica">22</tspan></text>
</g><path
         d="m 3383.5,384 0,1775.5"
         id="path224"
         style="fill:none;stroke:#6b6b6b;stroke-width:1.25;stroke-linecap:butt;stroke-linejoin:miter;stroke-miterlimit:3.79999995;stroke-opacity:1;stroke-dasharray:5, 10;stroke-dashoffset:0" /><path
         d="m 3383.5,384 0,31.5 m 0,1744 0,-31.5"
         id="path226"
         style="fill:none;stroke:#6b6b6b;stroke-width:7.5;stroke-linecap:butt;stroke-linejoin:miter;stroke-miterlimit:3.79999995;stroke-opacity:1;stroke-dasharray:none" /><g
         transform="scale(10,10)"
         id="g228"><text
           transform="matrix(1,0,0,-1,331.678,22.4)"
           id="text230"><tspan
             x="0 6.6719999"
             y="0"
             id="tspan232"
             style="font-size:12px;font-variant:normal;font-weight:normal;writing-mode:lr-tb;fill:#6b6b6b;fill-opacity:1;fill-rule:nonzero;stroke:none;font-family:Helvetica;-inkscape-font-specification:Helvetica">24</tspan></text>
</g><path
         d="m 660,384 2723.5,0 0,1775.5 -2723.5,0 0,-1775.5 z"
         id="path234"
         style="fill:none;stroke:#6b6b6b;stroke-width:7.5;stroke-linecap:butt;stroke-linejoin:miter;stroke-miterlimit:3.79999995;stroke-opacity:1;stroke-dasharray:none" /><g
         transform="scale(10,10)"
         id="g236"><text
           transform="matrix(0,1,1,0,13.6,108.143)"
           id="text238"><tspan
             x="0 9.3360004 12.672 15.336 22.007999 28.68 32.015999"
             y="0"
             id="tspan240"
             style="font-size:12px;font-variant:normal;font-weight:normal;writing-mode:lr-tb;fill:#000000;fill-opacity:1;fill-rule:nonzero;stroke:none;font-family:Helvetica;-inkscape-font-specification:Helvetica">Gflop/s</tspan></text>
<text
           transform="matrix(1,0,0,-1,157.805,4.4)"
           id="text242"><tspan
             x="0 8.6639996 15.336 25.332001 32.004002 38.675999 42.672001 46.007999 52.68 56.015999 59.352001 65.351997 72.024002 76.019997 82.692001"
             y="0"
             id="tspan244"
             style="font-size:12px;font-variant:normal;font-weight:normal;writing-mode:lr-tb;fill:#000000;fill-opacity:1;fill-rule:nonzero;stroke:none;font-family:Helvetica;-inkscape-font-specification:Helvetica">Number of cores</tspan></text>
</g><g
         transform="scale(10,10)"
         id="g246"><text
           transform="matrix(1,0,0,-1,107.113,229.95)"
           id="text248"><tspan
             x="0 9.9960003 18.66 22.656 30.66 33.995998 40.667999 47.34 51.335999 54.672001 61.344002 65.339996 75.335999 82.008003 88.68 94.68 101.352 104.688 108.024 114.696 121.368 128.03999 131.37601 138.048 144.72 151.392 154.728 161.39999 168.07201 174.744 177.408 184.08"
             y="0"
             id="tspan250"
             style="font-size:12px;font-variant:normal;font-weight:normal;writing-mode:lr-tb;fill:#000000;fill-opacity:1;fill-rule:nonzero;stroke:none;font-family:Helvetica;-inkscape-font-specification:Helvetica">MUrB performance, 100 000 bodies</tspan></text>
</g><g
         transform="scale(10,10)"
         id="g252"><text
           transform="matrix(1,0,0,-1,143.341,196.8)"
           id="text254"><tspan
             x="0 9.9960003 18.66 22.656"
             y="0"
             id="tspan256"
             style="font-size:12px;font-variant:normal;font-weight:normal;writing-mode:lr-tb;fill:#000000;fill-opacity:1;fill-rule:nonzero;stroke:none;font-family:Helvetica;-inkscape-font-specification:Helvetica">MUrB</tspan></text>
</g><path
         d="m 1812,2008 319.5,0 M 660,420.5 l 118.5,37 118.5,33 118,36 118.5,32.5 118.5,33 118.5,33.5 118.5,36 118.5,30.5 118,35.5 118.5,36 118.5,34 118.5,33.5 118.5,33.5 118.5,33.5 118,38 118.5,32.5 118.5,33.5 118.5,34 118.5,33.5 118.5,32 118,24.5 118.5,43.5 118.5,65"
         id="path258"
         style="fill:none;stroke:#1c4599;stroke-width:10;stroke-linecap:butt;stroke-linejoin:miter;stroke-miterlimit:3.79999995;stroke-opacity:1;stroke-dasharray:20, 10;stroke-dashoffset:0" /><path
         d="m 644.25,436.25 31.5,-31.5"
         id="path260"
         style="fill:none;stroke:#1c4599;stroke-width:10;stroke-linecap:butt;stroke-linejoin:miter;stroke-miterlimit:3.79999995;stroke-opacity:1;stroke-dasharray:none" /><path
         d="m 644.25,404.75 31.5,31.5"
         id="path262"
         style="fill:none;stroke:#1c4599;stroke-width:10;stroke-linecap:butt;stroke-linejoin:miter;stroke-miterlimit:3.79999995;stroke-opacity:1;stroke-dasharray:none" /><path
         d="m 762.75,473.25 31.5,-31.5"
         id="path264"
         style="fill:none;stroke:#1c4599;stroke-width:10;stroke-linecap:butt;stroke-linejoin:miter;stroke-miterlimit:3.79999995;stroke-opacity:1;stroke-dasharray:none" /><path
         d="m 762.75,441.75 31.5,31.5"
         id="path266"
         style="fill:none;stroke:#1c4599;stroke-width:10;stroke-linecap:butt;stroke-linejoin:miter;stroke-miterlimit:3.79999995;stroke-opacity:1;stroke-dasharray:none" /><path
         d="m 881.25,506.25 31.5,-31.5"
         id="path268"
         style="fill:none;stroke:#1c4599;stroke-width:10;stroke-linecap:butt;stroke-linejoin:miter;stroke-miterlimit:3.79999995;stroke-opacity:1;stroke-dasharray:none" /><path
         d="m 881.25,474.75 31.5,31.5"
         id="path270"
         style="fill:none;stroke:#1c4599;stroke-width:10;stroke-linecap:butt;stroke-linejoin:miter;stroke-miterlimit:3.79999995;stroke-opacity:1;stroke-dasharray:none" /><path
         d="m 999.25,542.25 31.5,-31.5"
         id="path272"
         style="fill:none;stroke:#1c4599;stroke-width:10;stroke-linecap:butt;stroke-linejoin:miter;stroke-miterlimit:3.79999995;stroke-opacity:1;stroke-dasharray:none" /><path
         d="m 999.25,510.75 31.5,31.5"
         id="path274"
         style="fill:none;stroke:#1c4599;stroke-width:10;stroke-linecap:butt;stroke-linejoin:miter;stroke-miterlimit:3.79999995;stroke-opacity:1;stroke-dasharray:none" /><path
         d="m 1117.75,574.75 31.5,-31.5"
         id="path276"
         style="fill:none;stroke:#1c4599;stroke-width:10;stroke-linecap:butt;stroke-linejoin:miter;stroke-miterlimit:3.79999995;stroke-opacity:1;stroke-dasharray:none" /><path
         d="m 1117.75,543.25 31.5,31.5"
         id="path278"
         style="fill:none;stroke:#1c4599;stroke-width:10;stroke-linecap:butt;stroke-linejoin:miter;stroke-miterlimit:3.79999995;stroke-opacity:1;stroke-dasharray:none" /><path
         d="m 1236.25,607.75 31.5,-31.5"
         id="path280"
         style="fill:none;stroke:#1c4599;stroke-width:10;stroke-linecap:butt;stroke-linejoin:miter;stroke-miterlimit:3.79999995;stroke-opacity:1;stroke-dasharray:none" /><path
         d="m 1236.25,576.25 31.5,31.5"
         id="path282"
         style="fill:none;stroke:#1c4599;stroke-width:10;stroke-linecap:butt;stroke-linejoin:miter;stroke-miterlimit:3.79999995;stroke-opacity:1;stroke-dasharray:none" /><path
         d="m 1354.75,641.25 31.5,-31.5"
         id="path284"
         style="fill:none;stroke:#1c4599;stroke-width:10;stroke-linecap:butt;stroke-linejoin:miter;stroke-miterlimit:3.79999995;stroke-opacity:1;stroke-dasharray:none" /><path
         d="m 1354.75,609.75 31.5,31.5"
         id="path286"
         style="fill:none;stroke:#1c4599;stroke-width:10;stroke-linecap:butt;stroke-linejoin:miter;stroke-miterlimit:3.79999995;stroke-opacity:1;stroke-dasharray:none" /><path
         d="m 1473.25,677.25 31.5,-31.5"
         id="path288"
         style="fill:none;stroke:#1c4599;stroke-width:10;stroke-linecap:butt;stroke-linejoin:miter;stroke-miterlimit:3.79999995;stroke-opacity:1;stroke-dasharray:none" /><path
         d="m 1473.25,645.75 31.5,31.5"
         id="path290"
         style="fill:none;stroke:#1c4599;stroke-width:10;stroke-linecap:butt;stroke-linejoin:miter;stroke-miterlimit:3.79999995;stroke-opacity:1;stroke-dasharray:none" /><path
         d="m 1591.75,707.75 31.5,-31.5"
         id="path292"
         style="fill:none;stroke:#1c4599;stroke-width:10;stroke-linecap:butt;stroke-linejoin:miter;stroke-miterlimit:3.79999995;stroke-opacity:1;stroke-dasharray:none" /><path
         d="m 1591.75,676.25 31.5,31.5"
         id="path294"
         style="fill:none;stroke:#1c4599;stroke-width:10;stroke-linecap:butt;stroke-linejoin:miter;stroke-miterlimit:3.79999995;stroke-opacity:1;stroke-dasharray:none" /><path
         d="m 1709.75,743.25 31.5,-31.5"
         id="path296"
         style="fill:none;stroke:#1c4599;stroke-width:10;stroke-linecap:butt;stroke-linejoin:miter;stroke-miterlimit:3.79999995;stroke-opacity:1;stroke-dasharray:none" /><path
         d="m 1709.75,711.75 31.5,31.5"
         id="path298"
         style="fill:none;stroke:#1c4599;stroke-width:10;stroke-linecap:butt;stroke-linejoin:miter;stroke-miterlimit:3.79999995;stroke-opacity:1;stroke-dasharray:none" /><path
         d="m 1828.25,779.25 31.5,-31.5"
         id="path300"
         style="fill:none;stroke:#1c4599;stroke-width:10;stroke-linecap:butt;stroke-linejoin:miter;stroke-miterlimit:3.79999995;stroke-opacity:1;stroke-dasharray:none" /><path
         d="m 1828.25,747.75 31.5,31.5"
         id="path302"
         style="fill:none;stroke:#1c4599;stroke-width:10;stroke-linecap:butt;stroke-linejoin:miter;stroke-miterlimit:3.79999995;stroke-opacity:1;stroke-dasharray:none" /><path
         d="m 1946.75,813.25 31.5,-31.5"
         id="path304"
         style="fill:none;stroke:#1c4599;stroke-width:10;stroke-linecap:butt;stroke-linejoin:miter;stroke-miterlimit:3.79999995;stroke-opacity:1;stroke-dasharray:none" /><path
         d="m 1946.75,781.75 31.5,31.5"
         id="path306"
         style="fill:none;stroke:#1c4599;stroke-width:10;stroke-linecap:butt;stroke-linejoin:miter;stroke-miterlimit:3.79999995;stroke-opacity:1;stroke-dasharray:none" /><path
         d="m 2065.25,846.75 31.5,-31.5"
         id="path308"
         style="fill:none;stroke:#1c4599;stroke-width:10;stroke-linecap:butt;stroke-linejoin:miter;stroke-miterlimit:3.79999995;stroke-opacity:1;stroke-dasharray:none" /><path
         d="m 2065.25,815.25 31.5,31.5"
         id="path310"
         style="fill:none;stroke:#1c4599;stroke-width:10;stroke-linecap:butt;stroke-linejoin:miter;stroke-miterlimit:3.79999995;stroke-opacity:1;stroke-dasharray:none" /><path
         d="m 2183.75,880.25 31.5,-31.5"
         id="path312"
         style="fill:none;stroke:#1c4599;stroke-width:10;stroke-linecap:butt;stroke-linejoin:miter;stroke-miterlimit:3.79999995;stroke-opacity:1;stroke-dasharray:none" /><path
         d="m 2183.75,848.75 31.5,31.5"
         id="path314"
         style="fill:none;stroke:#1c4599;stroke-width:10;stroke-linecap:butt;stroke-linejoin:miter;stroke-miterlimit:3.79999995;stroke-opacity:1;stroke-dasharray:none" /><path
         d="m 2302.25,913.75 31.5,-31.5"
         id="path316"
         style="fill:none;stroke:#1c4599;stroke-width:10;stroke-linecap:butt;stroke-linejoin:miter;stroke-miterlimit:3.79999995;stroke-opacity:1;stroke-dasharray:none" /><path
         d="m 2302.25,882.25 31.5,31.5"
         id="path318"
         style="fill:none;stroke:#1c4599;stroke-width:10;stroke-linecap:butt;stroke-linejoin:miter;stroke-miterlimit:3.79999995;stroke-opacity:1;stroke-dasharray:none" /><path
         d="m 2420.25,951.75 31.5,-31.5"
         id="path320"
         style="fill:none;stroke:#1c4599;stroke-width:10;stroke-linecap:butt;stroke-linejoin:miter;stroke-miterlimit:3.79999995;stroke-opacity:1;stroke-dasharray:none" /><path
         d="m 2420.25,920.25 31.5,31.5"
         id="path322"
         style="fill:none;stroke:#1c4599;stroke-width:10;stroke-linecap:butt;stroke-linejoin:miter;stroke-miterlimit:3.79999995;stroke-opacity:1;stroke-dasharray:none" /><path
         d="m 2538.75,984.25 31.5,-31.5"
         id="path324"
         style="fill:none;stroke:#1c4599;stroke-width:10;stroke-linecap:butt;stroke-linejoin:miter;stroke-miterlimit:3.79999995;stroke-opacity:1;stroke-dasharray:none" /><path
         d="m 2538.75,952.75 31.5,31.5"
         id="path326"
         style="fill:none;stroke:#1c4599;stroke-width:10;stroke-linecap:butt;stroke-linejoin:miter;stroke-miterlimit:3.79999995;stroke-opacity:1;stroke-dasharray:none" /><path
         d="m 2657.25,1017.75 31.5,-31.5"
         id="path328"
         style="fill:none;stroke:#1c4599;stroke-width:10;stroke-linecap:butt;stroke-linejoin:miter;stroke-miterlimit:3.79999995;stroke-opacity:1;stroke-dasharray:none" /><path
         d="m 2657.25,986.25 31.5,31.5"
         id="path330"
         style="fill:none;stroke:#1c4599;stroke-width:10;stroke-linecap:butt;stroke-linejoin:miter;stroke-miterlimit:3.79999995;stroke-opacity:1;stroke-dasharray:none" /><path
         d="m 2775.75,1051.75 31.5,-31.5"
         id="path332"
         style="fill:none;stroke:#1c4599;stroke-width:10;stroke-linecap:butt;stroke-linejoin:miter;stroke-miterlimit:3.79999995;stroke-opacity:1;stroke-dasharray:none" /><path
         d="m 2775.75,1020.25 31.5,31.5"
         id="path334"
         style="fill:none;stroke:#1c4599;stroke-width:10;stroke-linecap:butt;stroke-linejoin:miter;stroke-miterlimit:3.79999995;stroke-opacity:1;stroke-dasharray:none" /><path
         d="m 2894.25,1085.25 31.5,-31.5"
         id="path336"
         style="fill:none;stroke:#1c4599;stroke-width:10;stroke-linecap:butt;stroke-linejoin:miter;stroke-miterlimit:3.79999995;stroke-opacity:1;stroke-dasharray:none" /><path
         d="m 2894.25,1053.75 31.5,31.5"
         id="path338"
         style="fill:none;stroke:#1c4599;stroke-width:10;stroke-linecap:butt;stroke-linejoin:miter;stroke-miterlimit:3.79999995;stroke-opacity:1;stroke-dasharray:none" /><path
         d="m 3012.75,1117.25 31.5,-31.5"
         id="path340"
         style="fill:none;stroke:#1c4599;stroke-width:10;stroke-linecap:butt;stroke-linejoin:miter;stroke-miterlimit:3.79999995;stroke-opacity:1;stroke-dasharray:none" /><path
         d="m 3012.75,1085.75 31.5,31.5"
         id="path342"
         style="fill:none;stroke:#1c4599;stroke-width:10;stroke-linecap:butt;stroke-linejoin:miter;stroke-miterlimit:3.79999995;stroke-opacity:1;stroke-dasharray:none" /><path
         d="m 3130.75,1141.75 31.5,-31.5"
         id="path344"
         style="fill:none;stroke:#1c4599;stroke-width:10;stroke-linecap:butt;stroke-linejoin:miter;stroke-miterlimit:3.79999995;stroke-opacity:1;stroke-dasharray:none" /><path
         d="m 3130.75,1110.25 31.5,31.5"
         id="path346"
         style="fill:none;stroke:#1c4599;stroke-width:10;stroke-linecap:butt;stroke-linejoin:miter;stroke-miterlimit:3.79999995;stroke-opacity:1;stroke-dasharray:none" /><path
         d="m 3249.25,1185.25 31.5,-31.5"
         id="path348"
         style="fill:none;stroke:#1c4599;stroke-width:10;stroke-linecap:butt;stroke-linejoin:miter;stroke-miterlimit:3.79999995;stroke-opacity:1;stroke-dasharray:none" /><path
         d="m 3249.25,1153.75 31.5,31.5"
         id="path350"
         style="fill:none;stroke:#1c4599;stroke-width:10;stroke-linecap:butt;stroke-linejoin:miter;stroke-miterlimit:3.79999995;stroke-opacity:1;stroke-dasharray:none" /><path
         d="m 3367.75,1250.25 31.5,-31.5"
         id="path352"
         style="fill:none;stroke:#1c4599;stroke-width:10;stroke-linecap:butt;stroke-linejoin:miter;stroke-miterlimit:3.79999995;stroke-opacity:1;stroke-dasharray:none" /><path
         d="m 3367.75,1218.75 31.5,31.5"
         id="path354"
         style="fill:none;stroke:#1c4599;stroke-width:10;stroke-linecap:butt;stroke-linejoin:miter;stroke-miterlimit:3.79999995;stroke-opacity:1;stroke-dasharray:none" /><path
         d="m 1955.75,2023.75 31.5,-31.5"
         id="path356"
         style="fill:none;stroke:#1c4599;stroke-width:10;stroke-linecap:butt;stroke-linejoin:miter;stroke-miterlimit:3.79999995;stroke-opacity:1;stroke-dasharray:none" /><path
         d="m 1955.75,1992.25 31.5,31.5"
         id="path358"
         style="fill:none;stroke:#1c4599;stroke-width:10;stroke-linecap:butt;stroke-linejoin:miter;stroke-miterlimit:3.79999995;stroke-opacity:1;stroke-dasharray:none" /><g
         transform="scale(10,10)"
         id="g360"><text
           transform="matrix(1,0,0,-1,77.2941,184.8)"
           id="text362"><tspan
             x="0 6.6719999 13.344 20.016001 26.016001 29.351999 36.023998 42.695999 46.692001 50.028 56.700001 60.695999 70.692001 77.363998 84.036003 90.036003"
             y="0"
             id="tspan364"
             style="font-size:12px;font-variant:normal;font-weight:normal;writing-mode:lr-tb;fill:#000000;fill-opacity:1;fill-rule:nonzero;stroke:none;font-family:Helvetica;-inkscape-font-specification:Helvetica">peak performance</tspan></text>
</g><path
         d="m 1812,1888 319.5,0 M 660,456.5 l 27.5,17 27.5,17 27.5,16.5 27.5,17 27.5,17 27.5,17 27.5,16.5 27.5,17 27.5,17 27.5,17 27.5,16.5 27.5,17 27.5,17 27.5,16.5 27.5,17 27.5,17 27.5,17 27.5,16.5 27.5,17 27.5,17 27.5,17 27.5,16.5 27.5,17 27.5,17 28,17 27.5,16.5 27.5,17 27.5,17 27.5,16.5 27.5,17 27.5,17 27.5,17 27.5,16.5 27.5,17 27.5,17 27.5,17 27.5,16.5 27.5,17 27.5,17 27.5,16.5 27.5,17 27.5,17 27.5,17 27.5,16.5 27.5,17 27.5,17 27.5,17 27.5,16.5 27.5,17 27.5,17 27.5,17 27.5,16.5 27.5,17 27.5,17 27.5,16.5 27.5,17 27.5,17 27.5,17 27.5,16.5 27.5,17 27.5,17 27.5,17 27.5,16.5 27.5,17 27.5,17 27.5,17 27.5,16.5 27.5,17 27.5,17 27.5,16.5 27.5,17 27.5,17 27.5,17 27.5,16.5 28,17 27.5,17 27.5,17 27.5,16.5 27.5,17 27.5,17 27.5,17 27.5,16.5 27.5,17 27.5,17 27.5,16.5 27.5,17 27.5,17 27.5,17 27.5,16.5 27.5,17 27.5,17 27.5,17 27.5,16.5 27.5,17 27.5,17 27.5,17 27.5,16.5 27.5,17 27.5,17"
         id="path366"
         style="fill:none;stroke:#e62b17;stroke-width:5;stroke-linecap:butt;stroke-linejoin:miter;stroke-miterlimit:3.79999995;stroke-opacity:1;stroke-dasharray:none" /><path
         d="m 660,384 2723.5,0 0,1775.5 -2723.5,0 0,-1775.5 z"
         id="path368"
         style="fill:none;stroke:#6b6b6b;stroke-width:7.5;stroke-linecap:butt;stroke-linejoin:miter;stroke-miterlimit:3.79999995;stroke-opacity:1;stroke-dasharray:none" /></g></g></svg>