<?xml version="1.0" encoding="UTF-8" standalone="no"?>
<!-- Created with Inkscape (http://www.inkscape.org/) -->

<svg
   xmlns:dc="http://purl.org/dc/elements/1.1/"
   xmlns:cc="http://creativecommons.org/ns#"
   xmlns:rdf="http://www.w3.org/1999/02/22-rdf-syntax-ns#"
   xmlns:svg="http://www.w3.org/2000/svg"
   xmlns="http://www.w3.org/2000/svg"
   version="1.1"
   width="450"
   height="315"
   id="svg2"
   xml:space="preserve"><metadata
     id="metadata8"><rdf:RDF><cc:Work
         rdf:about=""><dc:format>image/svg+xml</dc:format><dc:type
           rdf:resource="http://purl.org/dc/dcmitype/StillImage" /><dc:title></dc:title></cc:Work></rdf:RDF></metadata><defs
     id="defs6" /><g
     transform="matrix(1.25,0,0,-1.25,0,315)"
     id="g10"><g
       transform="scale(0.1,0.1)"
       id="g12"><path
         d="m 660,384 2723.5,0"
         id="path14"
         style="fill:none;stroke:#6b6b6b;stroke-width:1.25;stroke-linecap:butt;stroke-linejoin:miter;stroke-miterlimit:3.79999995;stroke-opacity:1;stroke-dasharray:5, 10;stroke-dashoffset:0" /><path
         d="m 660,384 31.5,0 m 2692,0 -31.5,0"
         id="path16"
         style="fill:none;stroke:#6b6b6b;stroke-width:7.5;stroke-linecap:butt;stroke-linejoin:miter;stroke-miterlimit:3.79999995;stroke-opacity:1;stroke-dasharray:none" /><g
         transform="scale(10,10)"
         id="g18"><text
           transform="matrix(1,0,0,-1,52.1282,34.4)"
           id="text20"><tspan
             x="0"
             y="0"
             id="tspan22"
             style="font-size:12px;font-variant:normal;font-weight:normal;writing-mode:lr-tb;fill:#6b6b6b;fill-opacity:1;fill-rule:nonzero;stroke:none;font-family:Helvetica;-inkscape-font-specification:Helvetica">0</tspan></text>
</g><path
         d="m 660,561.5 2723.5,0"
         id="path24"
         style="fill:none;stroke:#6b6b6b;stroke-width:1.25;stroke-linecap:butt;stroke-linejoin:miter;stroke-miterlimit:3.79999995;stroke-opacity:1;stroke-dasharray:5, 10;stroke-dashoffset:0" /><path
         d="m 660,561.5 31.5,0 m 2692,0 -31.5,0"
         id="path26"
         style="fill:none;stroke:#6b6b6b;stroke-width:7.5;stroke-linecap:butt;stroke-linejoin:miter;stroke-miterlimit:3.79999995;stroke-opacity:1;stroke-dasharray:none" /><g
         transform="scale(10,10)"
         id="g28"><text
           transform="matrix(1,0,0,-1,38.7844,52.15)"
           id="text30"><tspan
             x="0 6.6719999 13.344"
             y="0"
             id="tspan32"
             style="font-size:12px;font-variant:normal;font-weight:normal;writing-mode:lr-tb;fill:#6b6b6b;fill-opacity:1;fill-rule:nonzero;stroke:none;font-family:Helvetica;-inkscape-font-specification:Helvetica">100</tspan></text>
</g><path
         d="m 660,739 2723.5,0"
         id="path34"
         style="fill:none;stroke:#6b6b6b;stroke-width:1.25;stroke-linecap:butt;stroke-linejoin:miter;stroke-miterlimit:3.79999995;stroke-opacity:1;stroke-dasharray:5, 10;stroke-dashoffset:0" /><path
         d="m 660,739 31.5,0 m 2692,0 -31.5,0"
         id="path36"
         style="fill:none;stroke:#6b6b6b;stroke-width:7.5;stroke-linecap:butt;stroke-linejoin:miter;stroke-miterlimit:3.79999995;stroke-opacity:1;stroke-dasharray:none" /><g
         transform="scale(10,10)"
         id="g38"><text
           transform="matrix(1,0,0,-1,38.7844,69.9)"
           id="text40"><tspan
             x="0 6.6719999 13.344"
             y="0"
             id="tspan42"
             style="font-size:12px;font-variant:normal;font-weight:normal;writing-mode:lr-tb;fill:#6b6b6b;fill-opacity:1;fill-rule:nonzero;stroke:none;font-family:Helvetica;-inkscape-font-specification:Helvetica">200</tspan></text>
</g><path
         d="m 660,916.5 2723.5,0"
         id="path44"
         style="fill:none;stroke:#6b6b6b;stroke-width:1.25;stroke-linecap:butt;stroke-linejoin:miter;stroke-miterlimit:3.79999995;stroke-opacity:1;stroke-dasharray:5, 10;stroke-dashoffset:0" /><path
         d="m 660,916.5 31.5,0 m 2692,0 -31.5,0"
         id="path46"
         style="fill:none;stroke:#6b6b6b;stroke-width:7.5;stroke-linecap:butt;stroke-linejoin:miter;stroke-miterlimit:3.79999995;stroke-opacity:1;stroke-dasharray:none" /><g
         transform="scale(10,10)"
         id="g48"><text
           transform="matrix(1,0,0,-1,38.7844,87.65)"
           id="text50"><tspan
             x="0 6.6719999 13.344"
             y="0"
             id="tspan52"
             style="font-size:12px;font-variant:normal;font-weight:normal;writing-mode:lr-tb;fill:#6b6b6b;fill-opacity:1;fill-rule:nonzero;stroke:none;font-family:Helvetica;-inkscape-font-specification:Helvetica">300</tspan></text>
</g><path
         d="m 660,1094 2723.5,0"
         id="path54"
         style="fill:none;stroke:#6b6b6b;stroke-width:1.25;stroke-linecap:butt;stroke-linejoin:miter;stroke-miterlimit:3.79999995;stroke-opacity:1;stroke-dasharray:5, 10;stroke-dashoffset:0" /><path
         d="m 660,1094 31.5,0 m 2692,0 -31.5,0"
         id="path56"
         style="fill:none;stroke:#6b6b6b;stroke-width:7.5;stroke-linecap:butt;stroke-linejoin:miter;stroke-miterlimit:3.79999995;stroke-opacity:1;stroke-dasharray:none" /><g
         transform="scale(10,10)"
         id="g58"><text
           transform="matrix(1,0,0,-1,38.7844,105.4)"
           id="text60"><tspan
             x="0 6.6719999 13.344"
             y="0"
             id="tspan62"
             style="font-size:12px;font-variant:normal;font-weight:normal;writing-mode:lr-tb;fill:#6b6b6b;fill-opacity:1;fill-rule:nonzero;stroke:none;font-family:Helvetica;-inkscape-font-specification:Helvetica">400</tspan></text>
</g><path
         d="m 660,1272 2723.5,0"
         id="path64"
         style="fill:none;stroke:#6b6b6b;stroke-width:1.25;stroke-linecap:butt;stroke-linejoin:miter;stroke-miterlimit:3.79999995;stroke-opacity:1;stroke-dasharray:5, 10;stroke-dashoffset:0" /><path
         d="m 660,1272 31.5,0 m 2692,0 -31.5,0"
         id="path66"
         style="fill:none;stroke:#6b6b6b;stroke-width:7.5;stroke-linecap:butt;stroke-linejoin:miter;stroke-miterlimit:3.79999995;stroke-opacity:1;stroke-dasharray:none" /><g
         transform="scale(10,10)"
         id="g68"><text
           transform="matrix(1,0,0,-1,38.7844,123.2)"
           id="text70"><tspan
             x="0 6.6719999 13.344"
             y="0"
             id="tspan72"
             style="font-size:12px;font-variant:normal;font-weight:normal;writing-mode:lr-tb;fill:#6b6b6b;fill-opacity:1;fill-rule:nonzero;stroke:none;font-family:Helvetica;-inkscape-font-specification:Helvetica">500</tspan></text>
</g><path
         d="m 660,1449.5 2723.5,0"
         id="path74"
         style="fill:none;stroke:#6b6b6b;stroke-width:1.25;stroke-linecap:butt;stroke-linejoin:miter;stroke-miterlimit:3.79999995;stroke-opacity:1;stroke-dasharray:5, 10;stroke-dashoffset:0" /><path
         d="m 660,1449.5 31.5,0 m 2692,0 -31.5,0"
         id="path76"
         style="fill:none;stroke:#6b6b6b;stroke-width:7.5;stroke-linecap:butt;stroke-linejoin:miter;stroke-miterlimit:3.79999995;stroke-opacity:1;stroke-dasharray:none" /><g
         transform="scale(10,10)"
         id="g78"><text
           transform="matrix(1,0,0,-1,38.7844,140.95)"
           id="text80"><tspan
             x="0 6.6719999 13.344"
             y="0"
             id="tspan82"
             style="font-size:12px;font-variant:normal;font-weight:normal;writing-mode:lr-tb;fill:#6b6b6b;fill-opacity:1;fill-rule:nonzero;stroke:none;font-family:Helvetica;-inkscape-font-specification:Helvetica">600</tspan></text>
</g><path
         d="m 660,1627 2723.5,0"
         id="path84"
         style="fill:none;stroke:#6b6b6b;stroke-width:1.25;stroke-linecap:butt;stroke-linejoin:miter;stroke-miterlimit:3.79999995;stroke-opacity:1;stroke-dasharray:5, 10;stroke-dashoffset:0" /><path
         d="m 660,1627 31.5,0 m 2692,0 -31.5,0"
         id="path86"
         style="fill:none;stroke:#6b6b6b;stroke-width:7.5;stroke-linecap:butt;stroke-linejoin:miter;stroke-miterlimit:3.79999995;stroke-opacity:1;stroke-dasharray:none" /><g
         transform="scale(10,10)"
         id="g88"><text
           transform="matrix(1,0,0,-1,38.7844,158.7)"
           id="text90"><tspan
             x="0 6.6719999 13.344"
             y="0"
             id="tspan92"
             style="font-size:12px;font-variant:normal;font-weight:normal;writing-mode:lr-tb;fill:#6b6b6b;fill-opacity:1;fill-rule:nonzero;stroke:none;font-family:Helvetica;-inkscape-font-specification:Helvetica">700</tspan></text>
</g><path
         d="m 660,1804.5 72,0 m 1903.5,0 748,0"
         id="path94"
         style="fill:none;stroke:#6b6b6b;stroke-width:1.25;stroke-linecap:butt;stroke-linejoin:miter;stroke-miterlimit:3.79999995;stroke-opacity:1;stroke-dasharray:5, 10;stroke-dashoffset:0" /><path
         d="m 660,1804.5 31.5,0 m 2692,0 -31.5,0"
         id="path96"
         style="fill:none;stroke:#6b6b6b;stroke-width:7.5;stroke-linecap:butt;stroke-linejoin:miter;stroke-miterlimit:3.79999995;stroke-opacity:1;stroke-dasharray:none" /><g
         transform="scale(10,10)"
         id="g98"><text
           transform="matrix(1,0,0,-1,38.7844,176.45)"
           id="text100"><tspan
             x="0 6.6719999 13.344"
             y="0"
             id="tspan102"
             style="font-size:12px;font-variant:normal;font-weight:normal;writing-mode:lr-tb;fill:#6b6b6b;fill-opacity:1;fill-rule:nonzero;stroke:none;font-family:Helvetica;-inkscape-font-specification:Helvetica">800</tspan></text>
</g><path
         d="m 660,1982 72,0 m 1903.5,0 748,0"
         id="path104"
         style="fill:none;stroke:#6b6b6b;stroke-width:1.25;stroke-linecap:butt;stroke-linejoin:miter;stroke-miterlimit:3.79999995;stroke-opacity:1;stroke-dasharray:5, 10;stroke-dashoffset:0" /><path
         d="m 660,1982 31.5,0 m 2692,0 -31.5,0"
         id="path106"
         style="fill:none;stroke:#6b6b6b;stroke-width:7.5;stroke-linecap:butt;stroke-linejoin:miter;stroke-miterlimit:3.79999995;stroke-opacity:1;stroke-dasharray:none" /><g
         transform="scale(10,10)"
         id="g108"><text
           transform="matrix(1,0,0,-1,38.7844,194.2)"
           id="text110"><tspan
             x="0 6.6719999 13.344"
             y="0"
             id="tspan112"
             style="font-size:12px;font-variant:normal;font-weight:normal;writing-mode:lr-tb;fill:#6b6b6b;fill-opacity:1;fill-rule:nonzero;stroke:none;font-family:Helvetica;-inkscape-font-specification:Helvetica">900</tspan></text>
</g><path
         d="m 660,2159.5 2723.5,0"
         id="path114"
         style="fill:none;stroke:#6b6b6b;stroke-width:1.25;stroke-linecap:butt;stroke-linejoin:miter;stroke-miterlimit:3.79999995;stroke-opacity:1;stroke-dasharray:5, 10;stroke-dashoffset:0" /><path
         d="m 660,2159.5 31.5,0 m 2692,0 -31.5,0"
         id="path116"
         style="fill:none;stroke:#6b6b6b;stroke-width:7.5;stroke-linecap:butt;stroke-linejoin:miter;stroke-miterlimit:3.79999995;stroke-opacity:1;stroke-dasharray:none" /><g
         transform="scale(10,10)"
         id="g118"><text
           transform="matrix(1,0,0,-1,32.1126,211.95)"
           id="text120"><tspan
             x="0 6.6719999 13.344 20.016001"
             y="0"
             id="tspan122"
             style="font-size:12px;font-variant:normal;font-weight:normal;writing-mode:lr-tb;fill:#6b6b6b;fill-opacity:1;fill-rule:nonzero;stroke:none;font-family:Helvetica;-inkscape-font-specification:Helvetica">1000</tspan></text>
</g><path
         d="m 907.5,384 0,1264 m 0,480 0,31.5"
         id="path124"
         style="fill:none;stroke:#6b6b6b;stroke-width:1.25;stroke-linecap:butt;stroke-linejoin:miter;stroke-miterlimit:3.79999995;stroke-opacity:1;stroke-dasharray:5, 10;stroke-dashoffset:0" /><path
         d="m 907.5,384 0,31.5 m 0,1744 0,-31.5"
         id="path126"
         style="fill:none;stroke:#6b6b6b;stroke-width:7.5;stroke-linecap:butt;stroke-linejoin:miter;stroke-miterlimit:3.79999995;stroke-opacity:1;stroke-dasharray:none" /><g
         transform="scale(10,10)"
         id="g128"><text
           transform="matrix(1,0,0,-1,89.0821,22.4)"
           id="text130"><tspan
             x="0"
             y="0"
             id="tspan132"
             style="font-size:12px;font-variant:normal;font-weight:normal;writing-mode:lr-tb;fill:#6b6b6b;fill-opacity:1;fill-rule:nonzero;stroke:none;font-family:Helvetica;-inkscape-font-specification:Helvetica">2</tspan></text>
</g><path
         d="m 1403,384 0,1264 m 0,480 0,31.5"
         id="path134"
         style="fill:none;stroke:#6b6b6b;stroke-width:1.25;stroke-linecap:butt;stroke-linejoin:miter;stroke-miterlimit:3.79999995;stroke-opacity:1;stroke-dasharray:5, 10;stroke-dashoffset:0" /><path
         d="m 1403,384 0,31.5 m 0,1744 0,-31.5"
         id="path136"
         style="fill:none;stroke:#6b6b6b;stroke-width:7.5;stroke-linecap:butt;stroke-linejoin:miter;stroke-miterlimit:3.79999995;stroke-opacity:1;stroke-dasharray:none" /><g
         transform="scale(10,10)"
         id="g138"><text
           transform="matrix(1,0,0,-1,138.632,22.4)"
           id="text140"><tspan
             x="0"
             y="0"
             id="tspan142"
             style="font-size:12px;font-variant:normal;font-weight:normal;writing-mode:lr-tb;fill:#6b6b6b;fill-opacity:1;fill-rule:nonzero;stroke:none;font-family:Helvetica;-inkscape-font-specification:Helvetica">4</tspan></text>
</g><path
         d="m 1898,384 0,1264 m 0,480 0,31.5"
         id="path144"
         style="fill:none;stroke:#6b6b6b;stroke-width:1.25;stroke-linecap:butt;stroke-linejoin:miter;stroke-miterlimit:3.79999995;stroke-opacity:1;stroke-dasharray:5, 10;stroke-dashoffset:0" /><path
         d="m 1898,384 0,31.5 m 0,1744 0,-31.5"
         id="path146"
         style="fill:none;stroke:#6b6b6b;stroke-width:7.5;stroke-linecap:butt;stroke-linejoin:miter;stroke-miterlimit:3.79999995;stroke-opacity:1;stroke-dasharray:none" /><g
         transform="scale(10,10)"
         id="g148"><text
           transform="matrix(1,0,0,-1,188.132,22.4)"
           id="text150"><tspan
             x="0"
             y="0"
             id="tspan152"
             style="font-size:12px;font-variant:normal;font-weight:normal;writing-mode:lr-tb;fill:#6b6b6b;fill-opacity:1;fill-rule:nonzero;stroke:none;font-family:Helvetica;-inkscape-font-specification:Helvetica">6</tspan></text>
</g><path
         d="m 2393,384 0,1264 m 0,480 0,31.5"
         id="path154"
         style="fill:none;stroke:#6b6b6b;stroke-width:1.25;stroke-linecap:butt;stroke-linejoin:miter;stroke-miterlimit:3.79999995;stroke-opacity:1;stroke-dasharray:5, 10;stroke-dashoffset:0" /><path
         d="m 2393,384 0,31.5 m 0,1744 0,-31.5"
         id="path156"
         style="fill:none;stroke:#6b6b6b;stroke-width:7.5;stroke-linecap:butt;stroke-linejoin:miter;stroke-miterlimit:3.79999995;stroke-opacity:1;stroke-dasharray:none" /><g
         transform="scale(10,10)"
         id="g158"><text
           transform="matrix(1,0,0,-1,237.632,22.4)"
           id="text160"><tspan
             x="0"
             y="0"
             id="tspan162"
             style="font-size:12px;font-variant:normal;font-weight:normal;writing-mode:lr-tb;fill:#6b6b6b;fill-opacity:1;fill-rule:nonzero;stroke:none;font-family:Helvetica;-inkscape-font-specification:Helvetica">8</tspan></text>
</g><path
         d="m 2888.5,384 0,1775.5"
         id="path164"
         style="fill:none;stroke:#6b6b6b;stroke-width:1.25;stroke-linecap:butt;stroke-linejoin:miter;stroke-miterlimit:3.79999995;stroke-opacity:1;stroke-dasharray:5, 10;stroke-dashoffset:0" /><path
         d="m 2888.5,384 0,31.5 m 0,1744 0,-31.5"
         id="path166"
         style="fill:none;stroke:#6b6b6b;stroke-width:7.5;stroke-linecap:butt;stroke-linejoin:miter;stroke-miterlimit:3.79999995;stroke-opacity:1;stroke-dasharray:none" /><g
         transform="scale(10,10)"
         id="g168"><text
           transform="matrix(1,0,0,-1,283.846,22.4)"
           id="text170"><tspan
             x="0 6.6719999"
             y="0"
             id="tspan172"
             style="font-size:12px;font-variant:normal;font-weight:normal;writing-mode:lr-tb;fill:#6b6b6b;fill-opacity:1;fill-rule:nonzero;stroke:none;font-family:Helvetica;-inkscape-font-specification:Helvetica">10</tspan></text>
</g><path
         d="m 3383.5,384 0,1775.5"
         id="path174"
         style="fill:none;stroke:#6b6b6b;stroke-width:1.25;stroke-linecap:butt;stroke-linejoin:miter;stroke-miterlimit:3.79999995;stroke-opacity:1;stroke-dasharray:5, 10;stroke-dashoffset:0" /><path
         d="m 3383.5,384 0,31.5 m 0,1744 0,-31.5"
         id="path176"
         style="fill:none;stroke:#6b6b6b;stroke-width:7.5;stroke-linecap:butt;stroke-linejoin:miter;stroke-miterlimit:3.79999995;stroke-opacity:1;stroke-dasharray:none" /><g
         transform="scale(10,10)"
         id="g178"><text
           transform="matrix(1,0,0,-1,333.346,22.4)"
           id="text180"><tspan
             x="0 6.6719999"
             y="0"
             id="tspan182"
             style="font-size:12px;font-variant:normal;font-weight:normal;writing-mode:lr-tb;fill:#6b6b6b;fill-opacity:1;fill-rule:nonzero;stroke:none;font-family:Helvetica;-inkscape-font-specification:Helvetica">12</tspan></text>
</g><path
         d="m 660,384 2723.5,0 0,1775.5 -2723.5,0 0,-1775.5 z"
         id="path184"
         style="fill:none;stroke:#6b6b6b;stroke-width:7.5;stroke-linecap:butt;stroke-linejoin:miter;stroke-miterlimit:3.79999995;stroke-opacity:1;stroke-dasharray:none" /><g
         transform="scale(10,10)"
         id="g186"><text
           transform="matrix(0,1,1,0,13.6,108.143)"
           id="text188"><tspan
             x="0 9.3360004 12.672 15.336 22.007999 28.68 32.015999"
             y="0"
             id="tspan190"
             style="font-size:12px;font-variant:normal;font-weight:normal;writing-mode:lr-tb;fill:#000000;fill-opacity:1;fill-rule:nonzero;stroke:none;font-family:Helvetica;-inkscape-font-specification:Helvetica">Gflop/s</tspan></text>
<text
           transform="matrix(1,0,0,-1,126.96,4.4)"
           id="text192"><tspan
             x="0 8.6639996 15.336 25.332001 32.004002 38.675999 42.672001 46.007999 52.68 56.015999 59.352001 62.688 69.360001 73.356003 80.028 86.699997 93.372002 99.372002 102.708 106.704 113.712 117.048 123.048 129.72 133.716 140.388 146.388"
             y="0"
             id="tspan194"
             style="font-size:12px;font-variant:normal;font-weight:normal;writing-mode:lr-tb;fill:#000000;fill-opacity:1;fill-rule:nonzero;stroke:none;font-family:Helvetica;-inkscape-font-specification:Helvetica">Number of threads (= cores)</tspan></text>
</g><g
         transform="scale(10,10)"
         id="g196"><text
           transform="matrix(1,0,0,-1,72.0973,229.95)"
           id="text198"><tspan
             x="0 9.9960003 18.66 27.323999 35.327999 38.664001 45.335999 52.007999 56.004002 59.34 66.012001 70.008003 80.003998 86.676003 93.348 99.348 106.02 109.356 112.692 119.364 126.036 129.37199 136.04401 142.716 149.388 152.724 159.396 166.06799 172.74001 175.40401 182.076 188.076 191.412 194.748 201.42 208.092 211.42799 214.092 217.42799 224.10001 228.09599 234.76801 238.104 240.76801 247.44 254.112"
             y="0"
             id="tspan200"
             style="font-size:12px;font-variant:normal;font-weight:normal;writing-mode:lr-tb;fill:#000000;fill-opacity:1;fill-rule:nonzero;stroke:none;font-family:Helvetica;-inkscape-font-specification:Helvetica">MURB performance, 50 000 bodies, 10 iterations</tspan></text>
</g><g
         transform="scale(10,10)"
         id="g202"><text
           transform="matrix(1,0,0,-1,117.855,196.8)"
           id="text204"><tspan
             x="0 9.9960003 18.66 27.323999 35.327999 38.664001 42 48.672001 55.344002 58.007999 64.008003 70.68 74.015999 76.68 86.676003 93.348 96.012001"
             y="0"
             id="tspan206"
             style="font-size:12px;font-variant:normal;font-weight:normal;writing-mode:lr-tb;fill:#000000;fill-opacity:1;fill-rule:nonzero;stroke:none;font-family:Helvetica;-inkscape-font-specification:Helvetica">MURB, naive impl.</tspan></text>
</g><path
         d="m 2244,2008 319.5,0 M 660,386.5 l 247.5,3 247.5,2 248,2.5 247.5,2.5 247.5,2.5 247.5,2 247.5,3 247.5,2.5 248,2.5 247.5,2 247.5,3"
         id="path208"
         style="fill:none;stroke:#1c4599;stroke-width:10;stroke-linecap:butt;stroke-linejoin:miter;stroke-miterlimit:3.79999995;stroke-opacity:1;stroke-dasharray:20, 10;stroke-dashoffset:0" /><path
         d="m 644.25,402.25 31.5,-31.5"
         id="path210"
         style="fill:none;stroke:#1c4599;stroke-width:10;stroke-linecap:butt;stroke-linejoin:miter;stroke-miterlimit:3.79999995;stroke-opacity:1;stroke-dasharray:none" /><path
         d="m 644.25,370.75 31.5,31.5"
         id="path212"
         style="fill:none;stroke:#1c4599;stroke-width:10;stroke-linecap:butt;stroke-linejoin:miter;stroke-miterlimit:3.79999995;stroke-opacity:1;stroke-dasharray:none" /><path
         d="m 891.75,405.25 31.5,-31.5"
         id="path214"
         style="fill:none;stroke:#1c4599;stroke-width:10;stroke-linecap:butt;stroke-linejoin:miter;stroke-miterlimit:3.79999995;stroke-opacity:1;stroke-dasharray:none" /><path
         d="m 891.75,373.75 31.5,31.5"
         id="path216"
         style="fill:none;stroke:#1c4599;stroke-width:10;stroke-linecap:butt;stroke-linejoin:miter;stroke-miterlimit:3.79999995;stroke-opacity:1;stroke-dasharray:none" /><path
         d="m 1139.25,407.25 31.5,-31.5"
         id="path218"
         style="fill:none;stroke:#1c4599;stroke-width:10;stroke-linecap:butt;stroke-linejoin:miter;stroke-miterlimit:3.79999995;stroke-opacity:1;stroke-dasharray:none" /><path
         d="m 1139.25,375.75 31.5,31.5"
         id="path220"
         style="fill:none;stroke:#1c4599;stroke-width:10;stroke-linecap:butt;stroke-linejoin:miter;stroke-miterlimit:3.79999995;stroke-opacity:1;stroke-dasharray:none" /><path
         d="m 1387.25,409.75 31.5,-31.5"
         id="path222"
         style="fill:none;stroke:#1c4599;stroke-width:10;stroke-linecap:butt;stroke-linejoin:miter;stroke-miterlimit:3.79999995;stroke-opacity:1;stroke-dasharray:none" /><path
         d="m 1387.25,378.25 31.5,31.5"
         id="path224"
         style="fill:none;stroke:#1c4599;stroke-width:10;stroke-linecap:butt;stroke-linejoin:miter;stroke-miterlimit:3.79999995;stroke-opacity:1;stroke-dasharray:none" /><path
         d="m 1634.75,412.25 31.5,-31.5"
         id="path226"
         style="fill:none;stroke:#1c4599;stroke-width:10;stroke-linecap:butt;stroke-linejoin:miter;stroke-miterlimit:3.79999995;stroke-opacity:1;stroke-dasharray:none" /><path
         d="m 1634.75,380.75 31.5,31.5"
         id="path228"
         style="fill:none;stroke:#1c4599;stroke-width:10;stroke-linecap:butt;stroke-linejoin:miter;stroke-miterlimit:3.79999995;stroke-opacity:1;stroke-dasharray:none" /><path
         d="m 1882.25,414.75 31.5,-31.5"
         id="path230"
         style="fill:none;stroke:#1c4599;stroke-width:10;stroke-linecap:butt;stroke-linejoin:miter;stroke-miterlimit:3.79999995;stroke-opacity:1;stroke-dasharray:none" /><path
         d="m 1882.25,383.25 31.5,31.5"
         id="path232"
         style="fill:none;stroke:#1c4599;stroke-width:10;stroke-linecap:butt;stroke-linejoin:miter;stroke-miterlimit:3.79999995;stroke-opacity:1;stroke-dasharray:none" /><path
         d="m 2129.75,416.75 31.5,-31.5"
         id="path234"
         style="fill:none;stroke:#1c4599;stroke-width:10;stroke-linecap:butt;stroke-linejoin:miter;stroke-miterlimit:3.79999995;stroke-opacity:1;stroke-dasharray:none" /><path
         d="m 2129.75,385.25 31.5,31.5"
         id="path236"
         style="fill:none;stroke:#1c4599;stroke-width:10;stroke-linecap:butt;stroke-linejoin:miter;stroke-miterlimit:3.79999995;stroke-opacity:1;stroke-dasharray:none" /><path
         d="m 2377.25,419.75 31.5,-31.5"
         id="path238"
         style="fill:none;stroke:#1c4599;stroke-width:10;stroke-linecap:butt;stroke-linejoin:miter;stroke-miterlimit:3.79999995;stroke-opacity:1;stroke-dasharray:none" /><path
         d="m 2377.25,388.25 31.5,31.5"
         id="path240"
         style="fill:none;stroke:#1c4599;stroke-width:10;stroke-linecap:butt;stroke-linejoin:miter;stroke-miterlimit:3.79999995;stroke-opacity:1;stroke-dasharray:none" /><path
         d="m 2624.75,422.25 31.5,-31.5"
         id="path242"
         style="fill:none;stroke:#1c4599;stroke-width:10;stroke-linecap:butt;stroke-linejoin:miter;stroke-miterlimit:3.79999995;stroke-opacity:1;stroke-dasharray:none" /><path
         d="m 2624.75,390.75 31.5,31.5"
         id="path244"
         style="fill:none;stroke:#1c4599;stroke-width:10;stroke-linecap:butt;stroke-linejoin:miter;stroke-miterlimit:3.79999995;stroke-opacity:1;stroke-dasharray:none" /><path
         d="m 2872.75,424.75 31.5,-31.5"
         id="path246"
         style="fill:none;stroke:#1c4599;stroke-width:10;stroke-linecap:butt;stroke-linejoin:miter;stroke-miterlimit:3.79999995;stroke-opacity:1;stroke-dasharray:none" /><path
         d="m 2872.75,393.25 31.5,31.5"
         id="path248"
         style="fill:none;stroke:#1c4599;stroke-width:10;stroke-linecap:butt;stroke-linejoin:miter;stroke-miterlimit:3.79999995;stroke-opacity:1;stroke-dasharray:none" /><path
         d="m 3120.25,426.75 31.5,-31.5"
         id="path250"
         style="fill:none;stroke:#1c4599;stroke-width:10;stroke-linecap:butt;stroke-linejoin:miter;stroke-miterlimit:3.79999995;stroke-opacity:1;stroke-dasharray:none" /><path
         d="m 3120.25,395.25 31.5,31.5"
         id="path252"
         style="fill:none;stroke:#1c4599;stroke-width:10;stroke-linecap:butt;stroke-linejoin:miter;stroke-miterlimit:3.79999995;stroke-opacity:1;stroke-dasharray:none" /><path
         d="m 3367.75,429.75 31.5,-31.5"
         id="path254"
         style="fill:none;stroke:#1c4599;stroke-width:10;stroke-linecap:butt;stroke-linejoin:miter;stroke-miterlimit:3.79999995;stroke-opacity:1;stroke-dasharray:none" /><path
         d="m 3367.75,398.25 31.5,31.5"
         id="path256"
         style="fill:none;stroke:#1c4599;stroke-width:10;stroke-linecap:butt;stroke-linejoin:miter;stroke-miterlimit:3.79999995;stroke-opacity:1;stroke-dasharray:none" /><path
         d="m 2387.75,2023.75 31.5,-31.5"
         id="path258"
         style="fill:none;stroke:#1c4599;stroke-width:10;stroke-linecap:butt;stroke-linejoin:miter;stroke-miterlimit:3.79999995;stroke-opacity:1;stroke-dasharray:none" /><path
         d="m 2387.75,1992.25 31.5,31.5"
         id="path260"
         style="fill:none;stroke:#1c4599;stroke-width:10;stroke-linecap:butt;stroke-linejoin:miter;stroke-miterlimit:3.79999995;stroke-opacity:1;stroke-dasharray:none" /><g
         transform="scale(10,10)"
         id="g262"><text
           transform="matrix(1,0,0,-1,93.8316,184.8)"
           id="text264"><tspan
             x="0 9.9960003 18.66 27.323999 35.327999 38.664001 42 45.335999 48 54.672001 61.344002 64.68 68.015999 74.688004 81.360001 88.031998 94.704002 98.040001 100.704 110.7 117.372 120.036"
             y="0"
             id="tspan266"
             style="font-size:12px;font-variant:normal;font-weight:normal;writing-mode:lr-tb;fill:#000000;fill-opacity:1;fill-rule:nonzero;stroke:none;font-family:Helvetica;-inkscape-font-specification:Helvetica">MURB, fine tuned impl.</tspan></text>
</g><path
         d="m 2244,1888 319.5,0 M 660,450 l 247.5,64.5 247.5,55 248,60.5 247.5,62.5 247.5,59.5 247.5,55.5 247.5,66 247.5,62 248,63.5 247.5,55.5 247.5,65.5"
         id="path268"
         style="fill:none;stroke:#12ad33;stroke-width:10;stroke-linecap:butt;stroke-linejoin:miter;stroke-miterlimit:3.79999995;stroke-opacity:1;stroke-dasharray:30, 10, 5, 10;stroke-dashoffset:0" /><path
         d="m 644.25,434.25 31.5,0 0,31.5 -31.5,0 0,-31.5 z"
         id="path270"
         style="fill:#12ad33;fill-opacity:1;fill-rule:nonzero;stroke:none" /><path
         d="m 891.75,498.75 31.5,0 0,31.5 -31.5,0 0,-31.5 z"
         id="path272"
         style="fill:#12ad33;fill-opacity:1;fill-rule:nonzero;stroke:none" /><path
         d="m 1139.25,553.75 31.5,0 0,31.5 -31.5,0 0,-31.5 z"
         id="path274"
         style="fill:#12ad33;fill-opacity:1;fill-rule:nonzero;stroke:none" /><path
         d="m 1387.25,614.25 31.5,0 0,31.5 -31.5,0 0,-31.5 z"
         id="path276"
         style="fill:#12ad33;fill-opacity:1;fill-rule:nonzero;stroke:none" /><path
         d="m 1634.75,676.75 31.5,0 0,31.5 -31.5,0 0,-31.5 z"
         id="path278"
         style="fill:#12ad33;fill-opacity:1;fill-rule:nonzero;stroke:none" /><path
         d="m 1882.25,736.25 31.5,0 0,31.5 -31.5,0 0,-31.5 z"
         id="path280"
         style="fill:#12ad33;fill-opacity:1;fill-rule:nonzero;stroke:none" /><path
         d="m 2129.75,791.75 31.5,0 0,31.5 -31.5,0 0,-31.5 z"
         id="path282"
         style="fill:#12ad33;fill-opacity:1;fill-rule:nonzero;stroke:none" /><path
         d="m 2377.25,857.75 31.5,0 0,31.5 -31.5,0 0,-31.5 z"
         id="path284"
         style="fill:#12ad33;fill-opacity:1;fill-rule:nonzero;stroke:none" /><path
         d="m 2624.75,919.75 31.5,0 0,31.5 -31.5,0 0,-31.5 z"
         id="path286"
         style="fill:#12ad33;fill-opacity:1;fill-rule:nonzero;stroke:none" /><path
         d="m 2872.75,983.25 31.5,0 0,31.5 -31.5,0 0,-31.5 z"
         id="path288"
         style="fill:#12ad33;fill-opacity:1;fill-rule:nonzero;stroke:none" /><path
         d="m 3120.25,1038.75 31.5,0 0,31.5 -31.5,0 0,-31.5 z"
         id="path290"
         style="fill:#12ad33;fill-opacity:1;fill-rule:nonzero;stroke:none" /><path
         d="m 3367.75,1104.25 31.5,0 0,31.5 -31.5,0 0,-31.5 z"
         id="path292"
         style="fill:#12ad33;fill-opacity:1;fill-rule:nonzero;stroke:none" /><path
         d="m 2387.75,1872.25 31.5,0 0,31.5 -31.5,0 0,-31.5 z"
         id="path294"
         style="fill:#12ad33;fill-opacity:1;fill-rule:nonzero;stroke:none" /><g
         transform="scale(10,10)"
         id="g296"><text
           transform="matrix(1,0,0,-1,120.494,172.8)"
           id="text298"><tspan
             x="0 6.6719999 13.344 20.016001 26.016001 29.351999 36.023998 42.695999 46.692001 50.028 56.700001 60.695999 70.692001 77.363998 84.036003 90.036003"
             y="0"
             id="tspan300"
             style="font-size:12px;font-variant:normal;font-weight:normal;writing-mode:lr-tb;fill:#000000;fill-opacity:1;fill-rule:nonzero;stroke:none;font-family:Helvetica;-inkscape-font-specification:Helvetica">peak performance</tspan></text>
</g><path
         d="m 2244,1768 319.5,0 M 660,531.5 l 27.5,16.5 27.5,16.5 27.5,16.5 27.5,16.5 27.5,16.5 27.5,16 27.5,16.5 27.5,16.5 27.5,16.5 27.5,16.5 27.5,16.5 27.5,16 27.5,16.5 27.5,16.5 27.5,16.5 27.5,16.5 27.5,16.5 27.5,16 27.5,16.5 27.5,16.5 27.5,16.5 27.5,16.5 27.5,16 27.5,16.5 28,16.5 27.5,16.5 27.5,16.5 27.5,16.5 27.5,16 27.5,16.5 27.5,16.5 27.5,16.5 27.5,16.5 27.5,16.5 27.5,16 27.5,16.5 27.5,16.5 27.5,16.5 27.5,16.5 27.5,16.5 27.5,16 27.5,16.5 27.5,16.5 27.5,16.5 27.5,16.5 27.5,16 27.5,16.5 27.5,16.5 27.5,16.5 27.5,16.5 27.5,16.5 27.5,16 27.5,16.5 27.5,16.5 27.5,16.5 27.5,16.5 27.5,16.5 27.5,16 27.5,16.5 27.5,16.5 27.5,16.5 27.5,16.5 27.5,16.5 27.5,16 27.5,16.5 27.5,16.5 27.5,16.5 27.5,16.5 27.5,16.5 27.5,16 27.5,16.5 27.5,16.5 27.5,16.5 27.5,16.5 28,16 27.5,16.5 27.5,16.5 27.5,16.5 27.5,16.5 27.5,16.5 27.5,16 27.5,16.5 27.5,16.5 27.5,16.5 27.5,16.5 27.5,16.5 27.5,16 27.5,16.5 27.5,16.5 27.5,16.5 27.5,16.5 27.5,16.5 27.5,16 27.5,16.5 27.5,16.5 27.5,16.5 27.5,16.5 27.5,16 27.5,16.5"
         id="path302"
         style="fill:none;stroke:#e62b17;stroke-width:5;stroke-linecap:butt;stroke-linejoin:miter;stroke-miterlimit:3.79999995;stroke-opacity:1;stroke-dasharray:none" /><path
         d="m 660,384 2723.5,0 0,1775.5 -2723.5,0 0,-1775.5 z"
         id="path304"
         style="fill:none;stroke:#6b6b6b;stroke-width:7.5;stroke-linecap:butt;stroke-linejoin:miter;stroke-miterlimit:3.79999995;stroke-opacity:1;stroke-dasharray:none" /></g></g></svg>