<?xml version="1.0" encoding="UTF-8" standalone="no"?>
<!-- Created with Inkscape (http://www.inkscape.org/) -->

<svg
   xmlns:dc="http://purl.org/dc/elements/1.1/"
   xmlns:cc="http://creativecommons.org/ns#"
   xmlns:rdf="http://www.w3.org/1999/02/22-rdf-syntax-ns#"
   xmlns:svg="http://www.w3.org/2000/svg"
   xmlns="http://www.w3.org/2000/svg"
   version="1.1"
   width="450"
   height="315"
   id="svg2"
   xml:space="preserve"><metadata
     id="metadata8"><rdf:RDF><cc:Work
         rdf:about=""><dc:format>image/svg+xml</dc:format><dc:type
           rdf:resource="http://purl.org/dc/dcmitype/StillImage" /><dc:title></dc:title></cc:Work></rdf:RDF></metadata><defs
     id="defs6" /><g
     transform="matrix(1.25,0,0,-1.25,0,315)"
     id="g10"><g
       transform="scale(0.1,0.1)"
       id="g12"><path
         d="m 516,545.5 2867.5,0"
         id="path14"
         style="fill:none;stroke:#6b6b6b;stroke-width:1.25;stroke-linecap:butt;stroke-linejoin:miter;stroke-miterlimit:3.79999995;stroke-opacity:1;stroke-dasharray:5, 10;stroke-dashoffset:0" /><path
         d="m 516,545.5 31.5,0 m 2836,0 -31.5,0"
         id="path16"
         style="fill:none;stroke:#6b6b6b;stroke-width:7.5;stroke-linecap:butt;stroke-linejoin:miter;stroke-miterlimit:3.79999995;stroke-opacity:1;stroke-dasharray:none" /><g
         transform="scale(10,10)"
         id="g18"><text
           transform="matrix(1,0,0,-1,37.7282,50.55)"
           id="text20"><tspan
             x="0"
             y="0"
             id="tspan22"
             style="font-size:12px;font-variant:normal;font-weight:normal;writing-mode:lr-tb;fill:#6b6b6b;fill-opacity:1;fill-rule:nonzero;stroke:none;font-family:Helvetica;-inkscape-font-specification:Helvetica">2</tspan></text>
</g><path
         d="m 516,868 2867.5,0"
         id="path24"
         style="fill:none;stroke:#6b6b6b;stroke-width:1.25;stroke-linecap:butt;stroke-linejoin:miter;stroke-miterlimit:3.79999995;stroke-opacity:1;stroke-dasharray:5, 10;stroke-dashoffset:0" /><path
         d="m 516,868 31.5,0 m 2836,0 -31.5,0"
         id="path26"
         style="fill:none;stroke:#6b6b6b;stroke-width:7.5;stroke-linecap:butt;stroke-linejoin:miter;stroke-miterlimit:3.79999995;stroke-opacity:1;stroke-dasharray:none" /><g
         transform="scale(10,10)"
         id="g28"><text
           transform="matrix(1,0,0,-1,37.7282,82.8)"
           id="text30"><tspan
             x="0"
             y="0"
             id="tspan32"
             style="font-size:12px;font-variant:normal;font-weight:normal;writing-mode:lr-tb;fill:#6b6b6b;fill-opacity:1;fill-rule:nonzero;stroke:none;font-family:Helvetica;-inkscape-font-specification:Helvetica">4</tspan></text>
</g><path
         d="m 516,1191 2867.5,0"
         id="path34"
         style="fill:none;stroke:#6b6b6b;stroke-width:1.25;stroke-linecap:butt;stroke-linejoin:miter;stroke-miterlimit:3.79999995;stroke-opacity:1;stroke-dasharray:5, 10;stroke-dashoffset:0" /><path
         d="m 516,1191 31.5,0 m 2836,0 -31.5,0"
         id="path36"
         style="fill:none;stroke:#6b6b6b;stroke-width:7.5;stroke-linecap:butt;stroke-linejoin:miter;stroke-miterlimit:3.79999995;stroke-opacity:1;stroke-dasharray:none" /><g
         transform="scale(10,10)"
         id="g38"><text
           transform="matrix(1,0,0,-1,37.7282,115.1)"
           id="text40"><tspan
             x="0"
             y="0"
             id="tspan42"
             style="font-size:12px;font-variant:normal;font-weight:normal;writing-mode:lr-tb;fill:#6b6b6b;fill-opacity:1;fill-rule:nonzero;stroke:none;font-family:Helvetica;-inkscape-font-specification:Helvetica">6</tspan></text>
</g><path
         d="m 516,1514 2867.5,0"
         id="path44"
         style="fill:none;stroke:#6b6b6b;stroke-width:1.25;stroke-linecap:butt;stroke-linejoin:miter;stroke-miterlimit:3.79999995;stroke-opacity:1;stroke-dasharray:5, 10;stroke-dashoffset:0" /><path
         d="m 516,1514 31.5,0 m 2836,0 -31.5,0"
         id="path46"
         style="fill:none;stroke:#6b6b6b;stroke-width:7.5;stroke-linecap:butt;stroke-linejoin:miter;stroke-miterlimit:3.79999995;stroke-opacity:1;stroke-dasharray:none" /><g
         transform="scale(10,10)"
         id="g48"><text
           transform="matrix(1,0,0,-1,37.7282,147.4)"
           id="text50"><tspan
             x="0"
             y="0"
             id="tspan52"
             style="font-size:12px;font-variant:normal;font-weight:normal;writing-mode:lr-tb;fill:#6b6b6b;fill-opacity:1;fill-rule:nonzero;stroke:none;font-family:Helvetica;-inkscape-font-specification:Helvetica">8</tspan></text>
</g><path
         d="m 516,1836.5 72,0 m 1471.5,0 1324,0"
         id="path54"
         style="fill:none;stroke:#6b6b6b;stroke-width:1.25;stroke-linecap:butt;stroke-linejoin:miter;stroke-miterlimit:3.79999995;stroke-opacity:1;stroke-dasharray:5, 10;stroke-dashoffset:0" /><path
         d="m 516,1836.5 31.5,0 m 2836,0 -31.5,0"
         id="path56"
         style="fill:none;stroke:#6b6b6b;stroke-width:7.5;stroke-linecap:butt;stroke-linejoin:miter;stroke-miterlimit:3.79999995;stroke-opacity:1;stroke-dasharray:none" /><g
         transform="scale(10,10)"
         id="g58"><text
           transform="matrix(1,0,0,-1,31.0563,179.65)"
           id="text60"><tspan
             x="0 6.6719999"
             y="0"
             id="tspan62"
             style="font-size:12px;font-variant:normal;font-weight:normal;writing-mode:lr-tb;fill:#6b6b6b;fill-opacity:1;fill-rule:nonzero;stroke:none;font-family:Helvetica;-inkscape-font-specification:Helvetica">10</tspan></text>
</g><path
         d="m 516,2159.5 2867.5,0"
         id="path64"
         style="fill:none;stroke:#6b6b6b;stroke-width:1.25;stroke-linecap:butt;stroke-linejoin:miter;stroke-miterlimit:3.79999995;stroke-opacity:1;stroke-dasharray:5, 10;stroke-dashoffset:0" /><path
         d="m 516,2159.5 31.5,0 m 2836,0 -31.5,0"
         id="path66"
         style="fill:none;stroke:#6b6b6b;stroke-width:7.5;stroke-linecap:butt;stroke-linejoin:miter;stroke-miterlimit:3.79999995;stroke-opacity:1;stroke-dasharray:none" /><g
         transform="scale(10,10)"
         id="g68"><text
           transform="matrix(1,0,0,-1,31.0563,211.95)"
           id="text70"><tspan
             x="0 6.6719999"
             y="0"
             id="tspan72"
             style="font-size:12px;font-variant:normal;font-weight:normal;writing-mode:lr-tb;fill:#6b6b6b;fill-opacity:1;fill-rule:nonzero;stroke:none;font-family:Helvetica;-inkscape-font-specification:Helvetica">12</tspan></text>
</g><path
         d="m 776.5,384 0,1384 m 0,360 0,31.5"
         id="path74"
         style="fill:none;stroke:#6b6b6b;stroke-width:1.25;stroke-linecap:butt;stroke-linejoin:miter;stroke-miterlimit:3.79999995;stroke-opacity:1;stroke-dasharray:5, 10;stroke-dashoffset:0" /><path
         d="m 776.5,384 0,31.5 m 0,1744 0,-31.5"
         id="path76"
         style="fill:none;stroke:#6b6b6b;stroke-width:7.5;stroke-linecap:butt;stroke-linejoin:miter;stroke-miterlimit:3.79999995;stroke-opacity:1;stroke-dasharray:none" /><g
         transform="scale(10,10)"
         id="g78"><text
           transform="matrix(1,0,0,-1,75.9821,22.4)"
           id="text80"><tspan
             x="0"
             y="0"
             id="tspan82"
             style="font-size:12px;font-variant:normal;font-weight:normal;writing-mode:lr-tb;fill:#6b6b6b;fill-opacity:1;fill-rule:nonzero;stroke:none;font-family:Helvetica;-inkscape-font-specification:Helvetica">2</tspan></text>
</g><path
         d="m 1298,384 0,1384 m 0,360 0,31.5"
         id="path84"
         style="fill:none;stroke:#6b6b6b;stroke-width:1.25;stroke-linecap:butt;stroke-linejoin:miter;stroke-miterlimit:3.79999995;stroke-opacity:1;stroke-dasharray:5, 10;stroke-dashoffset:0" /><path
         d="m 1298,384 0,31.5 m 0,1744 0,-31.5"
         id="path86"
         style="fill:none;stroke:#6b6b6b;stroke-width:7.5;stroke-linecap:butt;stroke-linejoin:miter;stroke-miterlimit:3.79999995;stroke-opacity:1;stroke-dasharray:none" /><g
         transform="scale(10,10)"
         id="g88"><text
           transform="matrix(1,0,0,-1,128.132,22.4)"
           id="text90"><tspan
             x="0"
             y="0"
             id="tspan92"
             style="font-size:12px;font-variant:normal;font-weight:normal;writing-mode:lr-tb;fill:#6b6b6b;fill-opacity:1;fill-rule:nonzero;stroke:none;font-family:Helvetica;-inkscape-font-specification:Helvetica">4</tspan></text>
</g><path
         d="m 1819.5,384 0,1384 m 0,360 0,31.5"
         id="path94"
         style="fill:none;stroke:#6b6b6b;stroke-width:1.25;stroke-linecap:butt;stroke-linejoin:miter;stroke-miterlimit:3.79999995;stroke-opacity:1;stroke-dasharray:5, 10;stroke-dashoffset:0" /><path
         d="m 1819.5,384 0,31.5 m 0,1744 0,-31.5"
         id="path96"
         style="fill:none;stroke:#6b6b6b;stroke-width:7.5;stroke-linecap:butt;stroke-linejoin:miter;stroke-miterlimit:3.79999995;stroke-opacity:1;stroke-dasharray:none" /><g
         transform="scale(10,10)"
         id="g98"><text
           transform="matrix(1,0,0,-1,180.282,22.4)"
           id="text100"><tspan
             x="0"
             y="0"
             id="tspan102"
             style="font-size:12px;font-variant:normal;font-weight:normal;writing-mode:lr-tb;fill:#6b6b6b;fill-opacity:1;fill-rule:nonzero;stroke:none;font-family:Helvetica;-inkscape-font-specification:Helvetica">6</tspan></text>
</g><path
         d="m 2341,384 0,1775.5"
         id="path104"
         style="fill:none;stroke:#6b6b6b;stroke-width:1.25;stroke-linecap:butt;stroke-linejoin:miter;stroke-miterlimit:3.79999995;stroke-opacity:1;stroke-dasharray:5, 10;stroke-dashoffset:0" /><path
         d="m 2341,384 0,31.5 m 0,1744 0,-31.5"
         id="path106"
         style="fill:none;stroke:#6b6b6b;stroke-width:7.5;stroke-linecap:butt;stroke-linejoin:miter;stroke-miterlimit:3.79999995;stroke-opacity:1;stroke-dasharray:none" /><g
         transform="scale(10,10)"
         id="g108"><text
           transform="matrix(1,0,0,-1,232.432,22.4)"
           id="text110"><tspan
             x="0"
             y="0"
             id="tspan112"
             style="font-size:12px;font-variant:normal;font-weight:normal;writing-mode:lr-tb;fill:#6b6b6b;fill-opacity:1;fill-rule:nonzero;stroke:none;font-family:Helvetica;-inkscape-font-specification:Helvetica">8</tspan></text>
</g><path
         d="m 2862,384 0,1775.5"
         id="path114"
         style="fill:none;stroke:#6b6b6b;stroke-width:1.25;stroke-linecap:butt;stroke-linejoin:miter;stroke-miterlimit:3.79999995;stroke-opacity:1;stroke-dasharray:5, 10;stroke-dashoffset:0" /><path
         d="m 2862,384 0,31.5 m 0,1744 0,-31.5"
         id="path116"
         style="fill:none;stroke:#6b6b6b;stroke-width:7.5;stroke-linecap:butt;stroke-linejoin:miter;stroke-miterlimit:3.79999995;stroke-opacity:1;stroke-dasharray:none" /><g
         transform="scale(10,10)"
         id="g118"><text
           transform="matrix(1,0,0,-1,281.196,22.4)"
           id="text120"><tspan
             x="0 6.6719999"
             y="0"
             id="tspan122"
             style="font-size:12px;font-variant:normal;font-weight:normal;writing-mode:lr-tb;fill:#6b6b6b;fill-opacity:1;fill-rule:nonzero;stroke:none;font-family:Helvetica;-inkscape-font-specification:Helvetica">10</tspan></text>
</g><path
         d="m 3383.5,384 0,1775.5"
         id="path124"
         style="fill:none;stroke:#6b6b6b;stroke-width:1.25;stroke-linecap:butt;stroke-linejoin:miter;stroke-miterlimit:3.79999995;stroke-opacity:1;stroke-dasharray:5, 10;stroke-dashoffset:0" /><path
         d="m 3383.5,384 0,31.5 m 0,1744 0,-31.5"
         id="path126"
         style="fill:none;stroke:#6b6b6b;stroke-width:7.5;stroke-linecap:butt;stroke-linejoin:miter;stroke-miterlimit:3.79999995;stroke-opacity:1;stroke-dasharray:none" /><g
         transform="scale(10,10)"
         id="g128"><text
           transform="matrix(1,0,0,-1,333.346,22.4)"
           id="text130"><tspan
             x="0 6.6719999"
             y="0"
             id="tspan132"
             style="font-size:12px;font-variant:normal;font-weight:normal;writing-mode:lr-tb;fill:#6b6b6b;fill-opacity:1;fill-rule:nonzero;stroke:none;font-family:Helvetica;-inkscape-font-specification:Helvetica">12</tspan></text>
</g><path
         d="m 516,384 2867.5,0 0,1775.5 -2867.5,0 0,-1775.5 z"
         id="path134"
         style="fill:none;stroke:#6b6b6b;stroke-width:7.5;stroke-linecap:butt;stroke-linejoin:miter;stroke-miterlimit:3.79999995;stroke-opacity:1;stroke-dasharray:none" /><g
         transform="scale(10,10)"
         id="g136"><text
           transform="matrix(0,1,1,0,13.6,99.6285)"
           id="text138"><tspan
             x="0 8.0039997 14.676 21.348 28.02 34.692001 41.700001 48.372002"
             y="0"
             id="tspan140"
             style="font-size:12px;font-variant:normal;font-weight:normal;writing-mode:lr-tb;fill:#000000;fill-opacity:1;fill-rule:nonzero;stroke:none;font-family:Helvetica;-inkscape-font-specification:Helvetica">Speed−up</tspan></text>
<text
           transform="matrix(1,0,0,-1,119.76,4.4)"
           id="text142"><tspan
             x="0 8.6639996 15.336 25.332001 32.004002 38.675999 42.672001 46.007999 52.68 56.015999 59.352001 62.688 69.360001 73.356003 80.028 86.699997 93.372002 99.372002 102.708 106.704 113.712 117.048 123.048 129.72 133.716 140.388 146.388"
             y="0"
             id="tspan144"
             style="font-size:12px;font-variant:normal;font-weight:normal;writing-mode:lr-tb;fill:#000000;fill-opacity:1;fill-rule:nonzero;stroke:none;font-family:Helvetica;-inkscape-font-specification:Helvetica">Number of threads (= cores)</tspan></text>
</g><g
         transform="scale(10,10)"
         id="g146"><text
           transform="matrix(1,0,0,-1,64.7172,229.95)"
           id="text148"><tspan
             x="0 7.3319998 14.004 16.667999 19.332001 22.667999 32.004002 42 50.004002 53.34 59.34 66.012001 72.683998 79.356003 86.028 93.036003 99.708 106.38 109.716 113.052 119.724 126.396 129.73199 136.40401 143.076 149.748 153.084 159.756 166.42799 173.10001 175.76401 182.436 188.436 191.772 195.108 201.78 208.452 211.78799 214.452 217.78799 224.46001 228.45599 235.12801 238.464 241.12801 247.8 254.472"
             y="0"
             id="tspan150"
             style="font-size:12px;font-variant:normal;font-weight:normal;writing-mode:lr-tb;fill:#000000;fill-opacity:1;fill-rule:nonzero;stroke:none;font-family:Helvetica;-inkscape-font-specification:Helvetica">Full OMP speed−up, 50 000 bodies, 10 iterations</tspan></text>
</g><g
         transform="scale(10,10)"
         id="g152"><text
           transform="matrix(1,0,0,-1,124.273,196.8)"
           id="text154"><tspan
             x="0 9.9960003 18.66 27.323999"
             y="0"
             id="tspan156"
             style="font-size:12px;font-variant:normal;font-weight:normal;writing-mode:lr-tb;fill:#000000;fill-opacity:1;fill-rule:nonzero;stroke:none;font-family:Helvetica;-inkscape-font-specification:Helvetica">MURB</tspan></text>
</g><path
         d="m 1668,2008 319.5,0 M 516,384 l 260.5,158 261,134 260.5,148.5 260.5,153.5 261,145.5 260.5,135.5 261,161 260.5,152 260.5,155 261,137 260.5,163"
         id="path158"
         style="fill:none;stroke:#1c4599;stroke-width:10;stroke-linecap:butt;stroke-linejoin:miter;stroke-miterlimit:3.79999995;stroke-opacity:1;stroke-dasharray:20, 10;stroke-dashoffset:0" /><path
         d="m 500.25,399.75 31.5,-31.5"
         id="path160"
         style="fill:none;stroke:#1c4599;stroke-width:10;stroke-linecap:butt;stroke-linejoin:miter;stroke-miterlimit:3.79999995;stroke-opacity:1;stroke-dasharray:none" /><path
         d="m 500.25,368.25 31.5,31.5"
         id="path162"
         style="fill:none;stroke:#1c4599;stroke-width:10;stroke-linecap:butt;stroke-linejoin:miter;stroke-miterlimit:3.79999995;stroke-opacity:1;stroke-dasharray:none" /><path
         d="m 760.75,557.75 31.5,-31.5"
         id="path164"
         style="fill:none;stroke:#1c4599;stroke-width:10;stroke-linecap:butt;stroke-linejoin:miter;stroke-miterlimit:3.79999995;stroke-opacity:1;stroke-dasharray:none" /><path
         d="m 760.75,526.25 31.5,31.5"
         id="path166"
         style="fill:none;stroke:#1c4599;stroke-width:10;stroke-linecap:butt;stroke-linejoin:miter;stroke-miterlimit:3.79999995;stroke-opacity:1;stroke-dasharray:none" /><path
         d="m 1021.75,691.75 31.5,-31.5"
         id="path168"
         style="fill:none;stroke:#1c4599;stroke-width:10;stroke-linecap:butt;stroke-linejoin:miter;stroke-miterlimit:3.79999995;stroke-opacity:1;stroke-dasharray:none" /><path
         d="m 1021.75,660.25 31.5,31.5"
         id="path170"
         style="fill:none;stroke:#1c4599;stroke-width:10;stroke-linecap:butt;stroke-linejoin:miter;stroke-miterlimit:3.79999995;stroke-opacity:1;stroke-dasharray:none" /><path
         d="m 1282.25,840.25 31.5,-31.5"
         id="path172"
         style="fill:none;stroke:#1c4599;stroke-width:10;stroke-linecap:butt;stroke-linejoin:miter;stroke-miterlimit:3.79999995;stroke-opacity:1;stroke-dasharray:none" /><path
         d="m 1282.25,808.75 31.5,31.5"
         id="path174"
         style="fill:none;stroke:#1c4599;stroke-width:10;stroke-linecap:butt;stroke-linejoin:miter;stroke-miterlimit:3.79999995;stroke-opacity:1;stroke-dasharray:none" /><path
         d="m 1542.75,993.75 31.5,-31.5"
         id="path176"
         style="fill:none;stroke:#1c4599;stroke-width:10;stroke-linecap:butt;stroke-linejoin:miter;stroke-miterlimit:3.79999995;stroke-opacity:1;stroke-dasharray:none" /><path
         d="m 1542.75,962.25 31.5,31.5"
         id="path178"
         style="fill:none;stroke:#1c4599;stroke-width:10;stroke-linecap:butt;stroke-linejoin:miter;stroke-miterlimit:3.79999995;stroke-opacity:1;stroke-dasharray:none" /><path
         d="m 1803.75,1139.25 31.5,-31.5"
         id="path180"
         style="fill:none;stroke:#1c4599;stroke-width:10;stroke-linecap:butt;stroke-linejoin:miter;stroke-miterlimit:3.79999995;stroke-opacity:1;stroke-dasharray:none" /><path
         d="m 1803.75,1107.75 31.5,31.5"
         id="path182"
         style="fill:none;stroke:#1c4599;stroke-width:10;stroke-linecap:butt;stroke-linejoin:miter;stroke-miterlimit:3.79999995;stroke-opacity:1;stroke-dasharray:none" /><path
         d="m 2064.25,1274.75 31.5,-31.5"
         id="path184"
         style="fill:none;stroke:#1c4599;stroke-width:10;stroke-linecap:butt;stroke-linejoin:miter;stroke-miterlimit:3.79999995;stroke-opacity:1;stroke-dasharray:none" /><path
         d="m 2064.25,1243.25 31.5,31.5"
         id="path186"
         style="fill:none;stroke:#1c4599;stroke-width:10;stroke-linecap:butt;stroke-linejoin:miter;stroke-miterlimit:3.79999995;stroke-opacity:1;stroke-dasharray:none" /><path
         d="m 2325.25,1435.75 31.5,-31.5"
         id="path188"
         style="fill:none;stroke:#1c4599;stroke-width:10;stroke-linecap:butt;stroke-linejoin:miter;stroke-miterlimit:3.79999995;stroke-opacity:1;stroke-dasharray:none" /><path
         d="m 2325.25,1404.25 31.5,31.5"
         id="path190"
         style="fill:none;stroke:#1c4599;stroke-width:10;stroke-linecap:butt;stroke-linejoin:miter;stroke-miterlimit:3.79999995;stroke-opacity:1;stroke-dasharray:none" /><path
         d="m 2585.75,1587.75 31.5,-31.5"
         id="path192"
         style="fill:none;stroke:#1c4599;stroke-width:10;stroke-linecap:butt;stroke-linejoin:miter;stroke-miterlimit:3.79999995;stroke-opacity:1;stroke-dasharray:none" /><path
         d="m 2585.75,1556.25 31.5,31.5"
         id="path194"
         style="fill:none;stroke:#1c4599;stroke-width:10;stroke-linecap:butt;stroke-linejoin:miter;stroke-miterlimit:3.79999995;stroke-opacity:1;stroke-dasharray:none" /><path
         d="m 2846.25,1742.75 31.5,-31.5"
         id="path196"
         style="fill:none;stroke:#1c4599;stroke-width:10;stroke-linecap:butt;stroke-linejoin:miter;stroke-miterlimit:3.79999995;stroke-opacity:1;stroke-dasharray:none" /><path
         d="m 2846.25,1711.25 31.5,31.5"
         id="path198"
         style="fill:none;stroke:#1c4599;stroke-width:10;stroke-linecap:butt;stroke-linejoin:miter;stroke-miterlimit:3.79999995;stroke-opacity:1;stroke-dasharray:none" /><path
         d="m 3107.25,1879.75 31.5,-31.5"
         id="path200"
         style="fill:none;stroke:#1c4599;stroke-width:10;stroke-linecap:butt;stroke-linejoin:miter;stroke-miterlimit:3.79999995;stroke-opacity:1;stroke-dasharray:none" /><path
         d="m 3107.25,1848.25 31.5,31.5"
         id="path202"
         style="fill:none;stroke:#1c4599;stroke-width:10;stroke-linecap:butt;stroke-linejoin:miter;stroke-miterlimit:3.79999995;stroke-opacity:1;stroke-dasharray:none" /><path
         d="m 3367.75,2042.75 31.5,-31.5"
         id="path204"
         style="fill:none;stroke:#1c4599;stroke-width:10;stroke-linecap:butt;stroke-linejoin:miter;stroke-miterlimit:3.79999995;stroke-opacity:1;stroke-dasharray:none" /><path
         d="m 3367.75,2011.25 31.5,31.5"
         id="path206"
         style="fill:none;stroke:#1c4599;stroke-width:10;stroke-linecap:butt;stroke-linejoin:miter;stroke-miterlimit:3.79999995;stroke-opacity:1;stroke-dasharray:none" /><path
         d="m 1811.75,2023.75 31.5,-31.5"
         id="path208"
         style="fill:none;stroke:#1c4599;stroke-width:10;stroke-linecap:butt;stroke-linejoin:miter;stroke-miterlimit:3.79999995;stroke-opacity:1;stroke-dasharray:none" /><path
         d="m 1811.75,1992.25 31.5,31.5"
         id="path210"
         style="fill:none;stroke:#1c4599;stroke-width:10;stroke-linecap:butt;stroke-linejoin:miter;stroke-miterlimit:3.79999995;stroke-opacity:1;stroke-dasharray:none" /><g
         transform="scale(10,10)"
         id="g212"><text
           transform="matrix(1,0,0,-1,64.5504,184.8)"
           id="text214"><tspan
             x="0 6.6719999 13.344 16.68 19.344 29.34 36.012001 38.675999 42.012001 48.012001 54.683998 61.355999 68.028 74.699997 81.708 88.379997"
             y="0"
             id="tspan216"
             style="font-size:12px;font-variant:normal;font-weight:normal;writing-mode:lr-tb;fill:#000000;fill-opacity:1;fill-rule:nonzero;stroke:none;font-family:Helvetica;-inkscape-font-specification:Helvetica">optimal speed−up</tspan></text>
</g><path
         d="m 1668,1888 319.5,0 M 516,384 l 29,18 29,18 29,18 29,17.5 29,18 29,18 29,18 28.5,18 29,18 29,18 29,18 29,17.5 29,18 29,18 29,18 29,18 29,18 29,18 29,18 29,17.5 29,18 28.5,18 29,18 29,18 29,18 29,18 29,17.5 29,18 29,18 29,18 29,18 29,18 29,18 29,18 29,17.5 28.5,18 29,18 29,18 29,18 29,18 29,18 29,17.5 29,18 29,18 29,18 29,18 29,18 29,18 29,18 28.5,17.5 29,18 29,18 29,18 29,18 29,18 29,18 29,18 29,17.5 29,18 29,18 29,18 29,18 29,18 28.5,18 29,17.5 29,18 29,18 29,18 29,18 29,18 29,18 29,18 29,17.5 29,18 29,18 29,18 29,18 28.5,18 29,18 29,17.5 29,18 29,18 29,18 29,18 29,18 29,18 29,18 29,17.5 29,18 29,18 29,18 28.5,18 29,18 29,18 29,18 29,17.5 29,18 29,18 29,18"
         id="path218"
         style="fill:none;stroke:#e62b17;stroke-width:5;stroke-linecap:butt;stroke-linejoin:miter;stroke-miterlimit:3.79999995;stroke-opacity:1;stroke-dasharray:none" /><path
         d="m 516,384 2867.5,0 0,1775.5 -2867.5,0 0,-1775.5 z"
         id="path220"
         style="fill:none;stroke:#6b6b6b;stroke-width:7.5;stroke-linecap:butt;stroke-linejoin:miter;stroke-miterlimit:3.79999995;stroke-opacity:1;stroke-dasharray:none" /></g></g></svg>