<?xml version="1.0" encoding="UTF-8" standalone="no"?>
<!-- Created with Inkscape (http://www.inkscape.org/) -->

<svg
   xmlns:dc="http://purl.org/dc/elements/1.1/"
   xmlns:cc="http://creativecommons.org/ns#"
   xmlns:rdf="http://www.w3.org/1999/02/22-rdf-syntax-ns#"
   xmlns:svg="http://www.w3.org/2000/svg"
   xmlns="http://www.w3.org/2000/svg"
   version="1.1"
   width="450"
   height="315"
   id="svg2"
   xml:space="preserve"><metadata
     id="metadata8"><rdf:RDF><cc:Work
         rdf:about=""><dc:format>image/svg+xml</dc:format><dc:type
           rdf:resource="http://purl.org/dc/dcmitype/StillImage" /><dc:title></dc:title></cc:Work></rdf:RDF></metadata><defs
     id="defs6" /><g
     transform="matrix(1.25,0,0,-1.25,0,315)"
     id="g10"><g
       transform="scale(0.1,0.1)"
       id="g12"><path
         d="m 516,693 2867.5,0"
         id="path14"
         style="fill:none;stroke:#6b6b6b;stroke-width:1.25;stroke-linecap:butt;stroke-linejoin:miter;stroke-miterlimit:3.79999995;stroke-opacity:1;stroke-dasharray:5, 10;stroke-dashoffset:0" /><path
         d="m 516,693 31.5,0 m 2836,0 -31.5,0"
         id="path16"
         style="fill:none;stroke:#6b6b6b;stroke-width:7.5;stroke-linecap:butt;stroke-linejoin:miter;stroke-miterlimit:3.79999995;stroke-opacity:1;stroke-dasharray:none" /><g
         transform="scale(10,10)"
         id="g18"><text
           transform="matrix(1,0,0,-1,37.7282,65.3)"
           id="text20"><tspan
             x="0"
             y="0"
             id="tspan22"
             style="font-size:12px;font-variant:normal;font-weight:normal;writing-mode:lr-tb;fill:#6b6b6b;fill-opacity:1;fill-rule:nonzero;stroke:none;font-family:Helvetica;-inkscape-font-specification:Helvetica">5</tspan></text>
</g><path
         d="m 516,1079 2867.5,0"
         id="path24"
         style="fill:none;stroke:#6b6b6b;stroke-width:1.25;stroke-linecap:butt;stroke-linejoin:miter;stroke-miterlimit:3.79999995;stroke-opacity:1;stroke-dasharray:5, 10;stroke-dashoffset:0" /><path
         d="m 516,1079 31.5,0 m 2836,0 -31.5,0"
         id="path26"
         style="fill:none;stroke:#6b6b6b;stroke-width:7.5;stroke-linecap:butt;stroke-linejoin:miter;stroke-miterlimit:3.79999995;stroke-opacity:1;stroke-dasharray:none" /><g
         transform="scale(10,10)"
         id="g28"><text
           transform="matrix(1,0,0,-1,31.0563,103.9)"
           id="text30"><tspan
             x="0 6.6719999"
             y="0"
             id="tspan32"
             style="font-size:12px;font-variant:normal;font-weight:normal;writing-mode:lr-tb;fill:#6b6b6b;fill-opacity:1;fill-rule:nonzero;stroke:none;font-family:Helvetica;-inkscape-font-specification:Helvetica">10</tspan></text>
</g><path
         d="m 516,1464.5 2867.5,0"
         id="path34"
         style="fill:none;stroke:#6b6b6b;stroke-width:1.25;stroke-linecap:butt;stroke-linejoin:miter;stroke-miterlimit:3.79999995;stroke-opacity:1;stroke-dasharray:5, 10;stroke-dashoffset:0" /><path
         d="m 516,1464.5 31.5,0 m 2836,0 -31.5,0"
         id="path36"
         style="fill:none;stroke:#6b6b6b;stroke-width:7.5;stroke-linecap:butt;stroke-linejoin:miter;stroke-miterlimit:3.79999995;stroke-opacity:1;stroke-dasharray:none" /><g
         transform="scale(10,10)"
         id="g38"><text
           transform="matrix(1,0,0,-1,31.0563,142.45)"
           id="text40"><tspan
             x="0 6.6719999"
             y="0"
             id="tspan42"
             style="font-size:12px;font-variant:normal;font-weight:normal;writing-mode:lr-tb;fill:#6b6b6b;fill-opacity:1;fill-rule:nonzero;stroke:none;font-family:Helvetica;-inkscape-font-specification:Helvetica">15</tspan></text>
</g><path
         d="m 516,1850.5 72,0 m 1471.5,0 1324,0"
         id="path44"
         style="fill:none;stroke:#6b6b6b;stroke-width:1.25;stroke-linecap:butt;stroke-linejoin:miter;stroke-miterlimit:3.79999995;stroke-opacity:1;stroke-dasharray:5, 10;stroke-dashoffset:0" /><path
         d="m 516,1850.5 31.5,0 m 2836,0 -31.5,0"
         id="path46"
         style="fill:none;stroke:#6b6b6b;stroke-width:7.5;stroke-linecap:butt;stroke-linejoin:miter;stroke-miterlimit:3.79999995;stroke-opacity:1;stroke-dasharray:none" /><g
         transform="scale(10,10)"
         id="g48"><text
           transform="matrix(1,0,0,-1,31.0563,181.05)"
           id="text50"><tspan
             x="0 6.6719999"
             y="0"
             id="tspan52"
             style="font-size:12px;font-variant:normal;font-weight:normal;writing-mode:lr-tb;fill:#6b6b6b;fill-opacity:1;fill-rule:nonzero;stroke:none;font-family:Helvetica;-inkscape-font-specification:Helvetica">20</tspan></text>
</g><path
         d="m 640.5,384 0,1384 m 0,360 0,31.5"
         id="path54"
         style="fill:none;stroke:#6b6b6b;stroke-width:1.25;stroke-linecap:butt;stroke-linejoin:miter;stroke-miterlimit:3.79999995;stroke-opacity:1;stroke-dasharray:5, 10;stroke-dashoffset:0" /><path
         d="m 640.5,384 0,31.5 m 0,1744 0,-31.5"
         id="path56"
         style="fill:none;stroke:#6b6b6b;stroke-width:7.5;stroke-linecap:butt;stroke-linejoin:miter;stroke-miterlimit:3.79999995;stroke-opacity:1;stroke-dasharray:none" /><g
         transform="scale(10,10)"
         id="g58"><text
           transform="matrix(1,0,0,-1,60.7141,22.4)"
           id="text60"><tspan
             x="0"
             y="0"
             id="tspan62"
             style="font-size:12px;font-variant:normal;font-weight:normal;writing-mode:lr-tb;fill:#6b6b6b;fill-opacity:1;fill-rule:nonzero;stroke:none;font-family:Helvetica;-inkscape-font-specification:Helvetica">2</tspan></text>
</g><path
         d="m 890,384 0,1384 m 0,360 0,31.5"
         id="path64"
         style="fill:none;stroke:#6b6b6b;stroke-width:1.25;stroke-linecap:butt;stroke-linejoin:miter;stroke-miterlimit:3.79999995;stroke-opacity:1;stroke-dasharray:5, 10;stroke-dashoffset:0" /><path
         d="m 890,384 0,31.5 m 0,1744 0,-31.5"
         id="path66"
         style="fill:none;stroke:#6b6b6b;stroke-width:7.5;stroke-linecap:butt;stroke-linejoin:miter;stroke-miterlimit:3.79999995;stroke-opacity:1;stroke-dasharray:none" /><g
         transform="scale(10,10)"
         id="g68"><text
           transform="matrix(1,0,0,-1,85.6641,22.4)"
           id="text70"><tspan
             x="0"
             y="0"
             id="tspan72"
             style="font-size:12px;font-variant:normal;font-weight:normal;writing-mode:lr-tb;fill:#6b6b6b;fill-opacity:1;fill-rule:nonzero;stroke:none;font-family:Helvetica;-inkscape-font-specification:Helvetica">4</tspan></text>
</g><path
         d="m 1139.5,384 0,1384 m 0,360 0,31.5"
         id="path74"
         style="fill:none;stroke:#6b6b6b;stroke-width:1.25;stroke-linecap:butt;stroke-linejoin:miter;stroke-miterlimit:3.79999995;stroke-opacity:1;stroke-dasharray:5, 10;stroke-dashoffset:0" /><path
         d="m 1139.5,384 0,31.5 m 0,1744 0,-31.5"
         id="path76"
         style="fill:none;stroke:#6b6b6b;stroke-width:7.5;stroke-linecap:butt;stroke-linejoin:miter;stroke-miterlimit:3.79999995;stroke-opacity:1;stroke-dasharray:none" /><g
         transform="scale(10,10)"
         id="g78"><text
           transform="matrix(1,0,0,-1,110.614,22.4)"
           id="text80"><tspan
             x="0"
             y="0"
             id="tspan82"
             style="font-size:12px;font-variant:normal;font-weight:normal;writing-mode:lr-tb;fill:#6b6b6b;fill-opacity:1;fill-rule:nonzero;stroke:none;font-family:Helvetica;-inkscape-font-specification:Helvetica">6</tspan></text>
</g><path
         d="m 1388.5,384 0,1384 m 0,360 0,31.5"
         id="path84"
         style="fill:none;stroke:#6b6b6b;stroke-width:1.25;stroke-linecap:butt;stroke-linejoin:miter;stroke-miterlimit:3.79999995;stroke-opacity:1;stroke-dasharray:5, 10;stroke-dashoffset:0" /><path
         d="m 1388.5,384 0,31.5 m 0,1744 0,-31.5"
         id="path86"
         style="fill:none;stroke:#6b6b6b;stroke-width:7.5;stroke-linecap:butt;stroke-linejoin:miter;stroke-miterlimit:3.79999995;stroke-opacity:1;stroke-dasharray:none" /><g
         transform="scale(10,10)"
         id="g88"><text
           transform="matrix(1,0,0,-1,135.514,22.4)"
           id="text90"><tspan
             x="0"
             y="0"
             id="tspan92"
             style="font-size:12px;font-variant:normal;font-weight:normal;writing-mode:lr-tb;fill:#6b6b6b;fill-opacity:1;fill-rule:nonzero;stroke:none;font-family:Helvetica;-inkscape-font-specification:Helvetica">8</tspan></text>
</g><path
         d="m 1638,384 0,1384 m 0,360 0,31.5"
         id="path94"
         style="fill:none;stroke:#6b6b6b;stroke-width:1.25;stroke-linecap:butt;stroke-linejoin:miter;stroke-miterlimit:3.79999995;stroke-opacity:1;stroke-dasharray:5, 10;stroke-dashoffset:0" /><path
         d="m 1638,384 0,31.5 m 0,1744 0,-31.5"
         id="path96"
         style="fill:none;stroke:#6b6b6b;stroke-width:7.5;stroke-linecap:butt;stroke-linejoin:miter;stroke-miterlimit:3.79999995;stroke-opacity:1;stroke-dasharray:none" /><g
         transform="scale(10,10)"
         id="g98"><text
           transform="matrix(1,0,0,-1,157.128,22.4)"
           id="text100"><tspan
             x="0 6.6719999"
             y="0"
             id="tspan102"
             style="font-size:12px;font-variant:normal;font-weight:normal;writing-mode:lr-tb;fill:#6b6b6b;fill-opacity:1;fill-rule:nonzero;stroke:none;font-family:Helvetica;-inkscape-font-specification:Helvetica">10</tspan></text>
</g><path
         d="m 1887.5,384 0,1384 m 0,360 0,31.5"
         id="path104"
         style="fill:none;stroke:#6b6b6b;stroke-width:1.25;stroke-linecap:butt;stroke-linejoin:miter;stroke-miterlimit:3.79999995;stroke-opacity:1;stroke-dasharray:5, 10;stroke-dashoffset:0" /><path
         d="m 1887.5,384 0,31.5 m 0,1744 0,-31.5"
         id="path106"
         style="fill:none;stroke:#6b6b6b;stroke-width:7.5;stroke-linecap:butt;stroke-linejoin:miter;stroke-miterlimit:3.79999995;stroke-opacity:1;stroke-dasharray:none" /><g
         transform="scale(10,10)"
         id="g108"><text
           transform="matrix(1,0,0,-1,182.078,22.4)"
           id="text110"><tspan
             x="0 6.6719999"
             y="0"
             id="tspan112"
             style="font-size:12px;font-variant:normal;font-weight:normal;writing-mode:lr-tb;fill:#6b6b6b;fill-opacity:1;fill-rule:nonzero;stroke:none;font-family:Helvetica;-inkscape-font-specification:Helvetica">12</tspan></text>
</g><path
         d="m 2137,384 0,1775.5"
         id="path114"
         style="fill:none;stroke:#6b6b6b;stroke-width:1.25;stroke-linecap:butt;stroke-linejoin:miter;stroke-miterlimit:3.79999995;stroke-opacity:1;stroke-dasharray:5, 10;stroke-dashoffset:0" /><path
         d="m 2137,384 0,31.5 m 0,1744 0,-31.5"
         id="path116"
         style="fill:none;stroke:#6b6b6b;stroke-width:7.5;stroke-linecap:butt;stroke-linejoin:miter;stroke-miterlimit:3.79999995;stroke-opacity:1;stroke-dasharray:none" /><g
         transform="scale(10,10)"
         id="g118"><text
           transform="matrix(1,0,0,-1,207.028,22.4)"
           id="text120"><tspan
             x="0 6.6719999"
             y="0"
             id="tspan122"
             style="font-size:12px;font-variant:normal;font-weight:normal;writing-mode:lr-tb;fill:#6b6b6b;fill-opacity:1;fill-rule:nonzero;stroke:none;font-family:Helvetica;-inkscape-font-specification:Helvetica">14</tspan></text>
</g><path
         d="m 2386,384 0,1775.5"
         id="path124"
         style="fill:none;stroke:#6b6b6b;stroke-width:1.25;stroke-linecap:butt;stroke-linejoin:miter;stroke-miterlimit:3.79999995;stroke-opacity:1;stroke-dasharray:5, 10;stroke-dashoffset:0" /><path
         d="m 2386,384 0,31.5 m 0,1744 0,-31.5"
         id="path126"
         style="fill:none;stroke:#6b6b6b;stroke-width:7.5;stroke-linecap:butt;stroke-linejoin:miter;stroke-miterlimit:3.79999995;stroke-opacity:1;stroke-dasharray:none" /><g
         transform="scale(10,10)"
         id="g128"><text
           transform="matrix(1,0,0,-1,231.928,22.4)"
           id="text130"><tspan
             x="0 6.6719999"
             y="0"
             id="tspan132"
             style="font-size:12px;font-variant:normal;font-weight:normal;writing-mode:lr-tb;fill:#6b6b6b;fill-opacity:1;fill-rule:nonzero;stroke:none;font-family:Helvetica;-inkscape-font-specification:Helvetica">16</tspan></text>
</g><path
         d="m 2635.5,384 0,1775.5"
         id="path134"
         style="fill:none;stroke:#6b6b6b;stroke-width:1.25;stroke-linecap:butt;stroke-linejoin:miter;stroke-miterlimit:3.79999995;stroke-opacity:1;stroke-dasharray:5, 10;stroke-dashoffset:0" /><path
         d="m 2635.5,384 0,31.5 m 0,1744 0,-31.5"
         id="path136"
         style="fill:none;stroke:#6b6b6b;stroke-width:7.5;stroke-linecap:butt;stroke-linejoin:miter;stroke-miterlimit:3.79999995;stroke-opacity:1;stroke-dasharray:none" /><g
         transform="scale(10,10)"
         id="g138"><text
           transform="matrix(1,0,0,-1,256.878,22.4)"
           id="text140"><tspan
             x="0 6.6719999"
             y="0"
             id="tspan142"
             style="font-size:12px;font-variant:normal;font-weight:normal;writing-mode:lr-tb;fill:#6b6b6b;fill-opacity:1;fill-rule:nonzero;stroke:none;font-family:Helvetica;-inkscape-font-specification:Helvetica">18</tspan></text>
</g><path
         d="m 2885,384 0,1775.5"
         id="path144"
         style="fill:none;stroke:#6b6b6b;stroke-width:1.25;stroke-linecap:butt;stroke-linejoin:miter;stroke-miterlimit:3.79999995;stroke-opacity:1;stroke-dasharray:5, 10;stroke-dashoffset:0" /><path
         d="m 2885,384 0,31.5 m 0,1744 0,-31.5"
         id="path146"
         style="fill:none;stroke:#6b6b6b;stroke-width:7.5;stroke-linecap:butt;stroke-linejoin:miter;stroke-miterlimit:3.79999995;stroke-opacity:1;stroke-dasharray:none" /><g
         transform="scale(10,10)"
         id="g148"><text
           transform="matrix(1,0,0,-1,281.828,22.4)"
           id="text150"><tspan
             x="0 6.6719999"
             y="0"
             id="tspan152"
             style="font-size:12px;font-variant:normal;font-weight:normal;writing-mode:lr-tb;fill:#6b6b6b;fill-opacity:1;fill-rule:nonzero;stroke:none;font-family:Helvetica;-inkscape-font-specification:Helvetica">20</tspan></text>
</g><path
         d="m 3134,384 0,1775.5"
         id="path154"
         style="fill:none;stroke:#6b6b6b;stroke-width:1.25;stroke-linecap:butt;stroke-linejoin:miter;stroke-miterlimit:3.79999995;stroke-opacity:1;stroke-dasharray:5, 10;stroke-dashoffset:0" /><path
         d="m 3134,384 0,31.5 m 0,1744 0,-31.5"
         id="path156"
         style="fill:none;stroke:#6b6b6b;stroke-width:7.5;stroke-linecap:butt;stroke-linejoin:miter;stroke-miterlimit:3.79999995;stroke-opacity:1;stroke-dasharray:none" /><g
         transform="scale(10,10)"
         id="g158"><text
           transform="matrix(1,0,0,-1,306.728,22.4)"
           id="text160"><tspan
             x="0 6.6719999"
             y="0"
             id="tspan162"
             style="font-size:12px;font-variant:normal;font-weight:normal;writing-mode:lr-tb;fill:#6b6b6b;fill-opacity:1;fill-rule:nonzero;stroke:none;font-family:Helvetica;-inkscape-font-specification:Helvetica">22</tspan></text>
</g><path
         d="m 3383.5,384 0,1775.5"
         id="path164"
         style="fill:none;stroke:#6b6b6b;stroke-width:1.25;stroke-linecap:butt;stroke-linejoin:miter;stroke-miterlimit:3.79999995;stroke-opacity:1;stroke-dasharray:5, 10;stroke-dashoffset:0" /><path
         d="m 3383.5,384 0,31.5 m 0,1744 0,-31.5"
         id="path166"
         style="fill:none;stroke:#6b6b6b;stroke-width:7.5;stroke-linecap:butt;stroke-linejoin:miter;stroke-miterlimit:3.79999995;stroke-opacity:1;stroke-dasharray:none" /><g
         transform="scale(10,10)"
         id="g168"><text
           transform="matrix(1,0,0,-1,331.678,22.4)"
           id="text170"><tspan
             x="0 6.6719999"
             y="0"
             id="tspan172"
             style="font-size:12px;font-variant:normal;font-weight:normal;writing-mode:lr-tb;fill:#6b6b6b;fill-opacity:1;fill-rule:nonzero;stroke:none;font-family:Helvetica;-inkscape-font-specification:Helvetica">24</tspan></text>
</g><path
         d="m 516,384 2867.5,0 0,1775.5 -2867.5,0 0,-1775.5 z"
         id="path174"
         style="fill:none;stroke:#6b6b6b;stroke-width:7.5;stroke-linecap:butt;stroke-linejoin:miter;stroke-miterlimit:3.79999995;stroke-opacity:1;stroke-dasharray:none" /><g
         transform="scale(10,10)"
         id="g176"><text
           transform="matrix(0,1,1,0,13.6,99.6285)"
           id="text178"><tspan
             x="0 8.0039997 14.676 21.348 28.02 34.692001 41.700001 48.372002"
             y="0"
             id="tspan180"
             style="font-size:12px;font-variant:normal;font-weight:normal;writing-mode:lr-tb;fill:#000000;fill-opacity:1;fill-rule:nonzero;stroke:none;font-family:Helvetica;-inkscape-font-specification:Helvetica">Speed−up</tspan></text>
<text
           transform="matrix(1,0,0,-1,150.605,4.4)"
           id="text182"><tspan
             x="0 8.6639996 15.336 25.332001 32.004002 38.675999 42.672001 46.007999 52.68 56.015999 59.352001 65.351997 72.024002 76.019997 82.692001"
             y="0"
             id="tspan184"
             style="font-size:12px;font-variant:normal;font-weight:normal;writing-mode:lr-tb;fill:#000000;fill-opacity:1;fill-rule:nonzero;stroke:none;font-family:Helvetica;-inkscape-font-specification:Helvetica">Number of cores</tspan></text>
</g><g
         transform="scale(10,10)"
         id="g186"><text
           transform="matrix(1,0,0,-1,82.3988,229.95)"
           id="text188"><tspan
             x="0 9.9960003 18.66 22.656 30.66 33.995998 37.332001 44.004002 46.667999 49.332001 52.667999 62.004002 72 80.003998 83.339996 89.339996 96.012001 102.684 109.356 116.028 123.036 129.70799 136.38 139.716 143.052 149.724 156.396 163.06799 166.40401 173.076 179.748 186.42 189.756 196.42799 203.10001 209.772 212.436 219.108"
             y="0"
             id="tspan190"
             style="font-size:12px;font-variant:normal;font-weight:normal;writing-mode:lr-tb;fill:#000000;fill-opacity:1;fill-rule:nonzero;stroke:none;font-family:Helvetica;-inkscape-font-specification:Helvetica">MUrB full OMP speed−up, 100 000 bodies</tspan></text>
</g><g
         transform="scale(10,10)"
         id="g192"><text
           transform="matrix(1,0,0,-1,128.941,196.8)"
           id="text194"><tspan
             x="0 9.9960003 18.66 22.656"
             y="0"
             id="tspan196"
             style="font-size:12px;font-variant:normal;font-weight:normal;writing-mode:lr-tb;fill:#000000;fill-opacity:1;fill-rule:nonzero;stroke:none;font-family:Helvetica;-inkscape-font-specification:Helvetica">MUrB</tspan></text>
</g><path
         d="m 1668,2008 319.5,0 M 516,384 l 124.5,77 125,70.5 124.5,75 124.5,68.5 125,69.5 124.5,70.5 124.5,76 125,64 124.5,75 124.5,76 125,71.5 124.5,70.5 125,70 124.5,71 124.5,79.5 125,69 124.5,71 124.5,71 125,71 124.5,67 124.5,51.5 125,91.5 124.5,137"
         id="path198"
         style="fill:none;stroke:#1c4599;stroke-width:10;stroke-linecap:butt;stroke-linejoin:miter;stroke-miterlimit:3.79999995;stroke-opacity:1;stroke-dasharray:20, 10;stroke-dashoffset:0" /><path
         d="m 500.25,399.75 31.5,-31.5"
         id="path200"
         style="fill:none;stroke:#1c4599;stroke-width:10;stroke-linecap:butt;stroke-linejoin:miter;stroke-miterlimit:3.79999995;stroke-opacity:1;stroke-dasharray:none" /><path
         d="m 500.25,368.25 31.5,31.5"
         id="path202"
         style="fill:none;stroke:#1c4599;stroke-width:10;stroke-linecap:butt;stroke-linejoin:miter;stroke-miterlimit:3.79999995;stroke-opacity:1;stroke-dasharray:none" /><path
         d="m 624.75,476.75 31.5,-31.5"
         id="path204"
         style="fill:none;stroke:#1c4599;stroke-width:10;stroke-linecap:butt;stroke-linejoin:miter;stroke-miterlimit:3.79999995;stroke-opacity:1;stroke-dasharray:none" /><path
         d="m 624.75,445.25 31.5,31.5"
         id="path206"
         style="fill:none;stroke:#1c4599;stroke-width:10;stroke-linecap:butt;stroke-linejoin:miter;stroke-miterlimit:3.79999995;stroke-opacity:1;stroke-dasharray:none" /><path
         d="m 749.75,547.25 31.5,-31.5"
         id="path208"
         style="fill:none;stroke:#1c4599;stroke-width:10;stroke-linecap:butt;stroke-linejoin:miter;stroke-miterlimit:3.79999995;stroke-opacity:1;stroke-dasharray:none" /><path
         d="m 749.75,515.75 31.5,31.5"
         id="path210"
         style="fill:none;stroke:#1c4599;stroke-width:10;stroke-linecap:butt;stroke-linejoin:miter;stroke-miterlimit:3.79999995;stroke-opacity:1;stroke-dasharray:none" /><path
         d="m 874.25,622.25 31.5,-31.5"
         id="path212"
         style="fill:none;stroke:#1c4599;stroke-width:10;stroke-linecap:butt;stroke-linejoin:miter;stroke-miterlimit:3.79999995;stroke-opacity:1;stroke-dasharray:none" /><path
         d="m 874.25,590.75 31.5,31.5"
         id="path214"
         style="fill:none;stroke:#1c4599;stroke-width:10;stroke-linecap:butt;stroke-linejoin:miter;stroke-miterlimit:3.79999995;stroke-opacity:1;stroke-dasharray:none" /><path
         d="m 998.75,690.75 31.5,-31.5"
         id="path216"
         style="fill:none;stroke:#1c4599;stroke-width:10;stroke-linecap:butt;stroke-linejoin:miter;stroke-miterlimit:3.79999995;stroke-opacity:1;stroke-dasharray:none" /><path
         d="m 998.75,659.25 31.5,31.5"
         id="path218"
         style="fill:none;stroke:#1c4599;stroke-width:10;stroke-linecap:butt;stroke-linejoin:miter;stroke-miterlimit:3.79999995;stroke-opacity:1;stroke-dasharray:none" /><path
         d="m 1123.75,760.25 31.5,-31.5"
         id="path220"
         style="fill:none;stroke:#1c4599;stroke-width:10;stroke-linecap:butt;stroke-linejoin:miter;stroke-miterlimit:3.79999995;stroke-opacity:1;stroke-dasharray:none" /><path
         d="m 1123.75,728.75 31.5,31.5"
         id="path222"
         style="fill:none;stroke:#1c4599;stroke-width:10;stroke-linecap:butt;stroke-linejoin:miter;stroke-miterlimit:3.79999995;stroke-opacity:1;stroke-dasharray:none" /><path
         d="m 1248.25,830.75 31.5,-31.5"
         id="path224"
         style="fill:none;stroke:#1c4599;stroke-width:10;stroke-linecap:butt;stroke-linejoin:miter;stroke-miterlimit:3.79999995;stroke-opacity:1;stroke-dasharray:none" /><path
         d="m 1248.25,799.25 31.5,31.5"
         id="path226"
         style="fill:none;stroke:#1c4599;stroke-width:10;stroke-linecap:butt;stroke-linejoin:miter;stroke-miterlimit:3.79999995;stroke-opacity:1;stroke-dasharray:none" /><path
         d="m 1372.75,906.75 31.5,-31.5"
         id="path228"
         style="fill:none;stroke:#1c4599;stroke-width:10;stroke-linecap:butt;stroke-linejoin:miter;stroke-miterlimit:3.79999995;stroke-opacity:1;stroke-dasharray:none" /><path
         d="m 1372.75,875.25 31.5,31.5"
         id="path230"
         style="fill:none;stroke:#1c4599;stroke-width:10;stroke-linecap:butt;stroke-linejoin:miter;stroke-miterlimit:3.79999995;stroke-opacity:1;stroke-dasharray:none" /><path
         d="m 1497.75,970.75 31.5,-31.5"
         id="path232"
         style="fill:none;stroke:#1c4599;stroke-width:10;stroke-linecap:butt;stroke-linejoin:miter;stroke-miterlimit:3.79999995;stroke-opacity:1;stroke-dasharray:none" /><path
         d="m 1497.75,939.25 31.5,31.5"
         id="path234"
         style="fill:none;stroke:#1c4599;stroke-width:10;stroke-linecap:butt;stroke-linejoin:miter;stroke-miterlimit:3.79999995;stroke-opacity:1;stroke-dasharray:none" /><path
         d="m 1622.25,1045.75 31.5,-31.5"
         id="path236"
         style="fill:none;stroke:#1c4599;stroke-width:10;stroke-linecap:butt;stroke-linejoin:miter;stroke-miterlimit:3.79999995;stroke-opacity:1;stroke-dasharray:none" /><path
         d="m 1622.25,1014.25 31.5,31.5"
         id="path238"
         style="fill:none;stroke:#1c4599;stroke-width:10;stroke-linecap:butt;stroke-linejoin:miter;stroke-miterlimit:3.79999995;stroke-opacity:1;stroke-dasharray:none" /><path
         d="m 1746.75,1121.75 31.5,-31.5"
         id="path240"
         style="fill:none;stroke:#1c4599;stroke-width:10;stroke-linecap:butt;stroke-linejoin:miter;stroke-miterlimit:3.79999995;stroke-opacity:1;stroke-dasharray:none" /><path
         d="m 1746.75,1090.25 31.5,31.5"
         id="path242"
         style="fill:none;stroke:#1c4599;stroke-width:10;stroke-linecap:butt;stroke-linejoin:miter;stroke-miterlimit:3.79999995;stroke-opacity:1;stroke-dasharray:none" /><path
         d="m 1871.75,1193.25 31.5,-31.5"
         id="path244"
         style="fill:none;stroke:#1c4599;stroke-width:10;stroke-linecap:butt;stroke-linejoin:miter;stroke-miterlimit:3.79999995;stroke-opacity:1;stroke-dasharray:none" /><path
         d="m 1871.75,1161.75 31.5,31.5"
         id="path246"
         style="fill:none;stroke:#1c4599;stroke-width:10;stroke-linecap:butt;stroke-linejoin:miter;stroke-miterlimit:3.79999995;stroke-opacity:1;stroke-dasharray:none" /><path
         d="m 1996.25,1263.75 31.5,-31.5"
         id="path248"
         style="fill:none;stroke:#1c4599;stroke-width:10;stroke-linecap:butt;stroke-linejoin:miter;stroke-miterlimit:3.79999995;stroke-opacity:1;stroke-dasharray:none" /><path
         d="m 1996.25,1232.25 31.5,31.5"
         id="path250"
         style="fill:none;stroke:#1c4599;stroke-width:10;stroke-linecap:butt;stroke-linejoin:miter;stroke-miterlimit:3.79999995;stroke-opacity:1;stroke-dasharray:none" /><path
         d="m 2121.25,1333.75 31.5,-31.5"
         id="path252"
         style="fill:none;stroke:#1c4599;stroke-width:10;stroke-linecap:butt;stroke-linejoin:miter;stroke-miterlimit:3.79999995;stroke-opacity:1;stroke-dasharray:none" /><path
         d="m 2121.25,1302.25 31.5,31.5"
         id="path254"
         style="fill:none;stroke:#1c4599;stroke-width:10;stroke-linecap:butt;stroke-linejoin:miter;stroke-miterlimit:3.79999995;stroke-opacity:1;stroke-dasharray:none" /><path
         d="m 2245.75,1404.75 31.5,-31.5"
         id="path256"
         style="fill:none;stroke:#1c4599;stroke-width:10;stroke-linecap:butt;stroke-linejoin:miter;stroke-miterlimit:3.79999995;stroke-opacity:1;stroke-dasharray:none" /><path
         d="m 2245.75,1373.25 31.5,31.5"
         id="path258"
         style="fill:none;stroke:#1c4599;stroke-width:10;stroke-linecap:butt;stroke-linejoin:miter;stroke-miterlimit:3.79999995;stroke-opacity:1;stroke-dasharray:none" /><path
         d="m 2370.25,1484.25 31.5,-31.5"
         id="path260"
         style="fill:none;stroke:#1c4599;stroke-width:10;stroke-linecap:butt;stroke-linejoin:miter;stroke-miterlimit:3.79999995;stroke-opacity:1;stroke-dasharray:none" /><path
         d="m 2370.25,1452.75 31.5,31.5"
         id="path262"
         style="fill:none;stroke:#1c4599;stroke-width:10;stroke-linecap:butt;stroke-linejoin:miter;stroke-miterlimit:3.79999995;stroke-opacity:1;stroke-dasharray:none" /><path
         d="m 2495.25,1553.25 31.5,-31.5"
         id="path264"
         style="fill:none;stroke:#1c4599;stroke-width:10;stroke-linecap:butt;stroke-linejoin:miter;stroke-miterlimit:3.79999995;stroke-opacity:1;stroke-dasharray:none" /><path
         d="m 2495.25,1521.75 31.5,31.5"
         id="path266"
         style="fill:none;stroke:#1c4599;stroke-width:10;stroke-linecap:butt;stroke-linejoin:miter;stroke-miterlimit:3.79999995;stroke-opacity:1;stroke-dasharray:none" /><path
         d="m 2619.75,1624.25 31.5,-31.5"
         id="path268"
         style="fill:none;stroke:#1c4599;stroke-width:10;stroke-linecap:butt;stroke-linejoin:miter;stroke-miterlimit:3.79999995;stroke-opacity:1;stroke-dasharray:none" /><path
         d="m 2619.75,1592.75 31.5,31.5"
         id="path270"
         style="fill:none;stroke:#1c4599;stroke-width:10;stroke-linecap:butt;stroke-linejoin:miter;stroke-miterlimit:3.79999995;stroke-opacity:1;stroke-dasharray:none" /><path
         d="m 2744.25,1695.25 31.5,-31.5"
         id="path272"
         style="fill:none;stroke:#1c4599;stroke-width:10;stroke-linecap:butt;stroke-linejoin:miter;stroke-miterlimit:3.79999995;stroke-opacity:1;stroke-dasharray:none" /><path
         d="m 2744.25,1663.75 31.5,31.5"
         id="path274"
         style="fill:none;stroke:#1c4599;stroke-width:10;stroke-linecap:butt;stroke-linejoin:miter;stroke-miterlimit:3.79999995;stroke-opacity:1;stroke-dasharray:none" /><path
         d="m 2869.25,1766.25 31.5,-31.5"
         id="path276"
         style="fill:none;stroke:#1c4599;stroke-width:10;stroke-linecap:butt;stroke-linejoin:miter;stroke-miterlimit:3.79999995;stroke-opacity:1;stroke-dasharray:none" /><path
         d="m 2869.25,1734.75 31.5,31.5"
         id="path278"
         style="fill:none;stroke:#1c4599;stroke-width:10;stroke-linecap:butt;stroke-linejoin:miter;stroke-miterlimit:3.79999995;stroke-opacity:1;stroke-dasharray:none" /><path
         d="m 2993.75,1833.25 31.5,-31.5"
         id="path280"
         style="fill:none;stroke:#1c4599;stroke-width:10;stroke-linecap:butt;stroke-linejoin:miter;stroke-miterlimit:3.79999995;stroke-opacity:1;stroke-dasharray:none" /><path
         d="m 2993.75,1801.75 31.5,31.5"
         id="path282"
         style="fill:none;stroke:#1c4599;stroke-width:10;stroke-linecap:butt;stroke-linejoin:miter;stroke-miterlimit:3.79999995;stroke-opacity:1;stroke-dasharray:none" /><path
         d="m 3118.25,1884.75 31.5,-31.5"
         id="path284"
         style="fill:none;stroke:#1c4599;stroke-width:10;stroke-linecap:butt;stroke-linejoin:miter;stroke-miterlimit:3.79999995;stroke-opacity:1;stroke-dasharray:none" /><path
         d="m 3118.25,1853.25 31.5,31.5"
         id="path286"
         style="fill:none;stroke:#1c4599;stroke-width:10;stroke-linecap:butt;stroke-linejoin:miter;stroke-miterlimit:3.79999995;stroke-opacity:1;stroke-dasharray:none" /><path
         d="m 3243.25,1976.25 31.5,-31.5"
         id="path288"
         style="fill:none;stroke:#1c4599;stroke-width:10;stroke-linecap:butt;stroke-linejoin:miter;stroke-miterlimit:3.79999995;stroke-opacity:1;stroke-dasharray:none" /><path
         d="m 3243.25,1944.75 31.5,31.5"
         id="path290"
         style="fill:none;stroke:#1c4599;stroke-width:10;stroke-linecap:butt;stroke-linejoin:miter;stroke-miterlimit:3.79999995;stroke-opacity:1;stroke-dasharray:none" /><path
         d="m 3367.75,2113.25 31.5,-31.5"
         id="path292"
         style="fill:none;stroke:#1c4599;stroke-width:10;stroke-linecap:butt;stroke-linejoin:miter;stroke-miterlimit:3.79999995;stroke-opacity:1;stroke-dasharray:none" /><path
         d="m 3367.75,2081.75 31.5,31.5"
         id="path294"
         style="fill:none;stroke:#1c4599;stroke-width:10;stroke-linecap:butt;stroke-linejoin:miter;stroke-miterlimit:3.79999995;stroke-opacity:1;stroke-dasharray:none" /><path
         d="m 1811.75,2023.75 31.5,-31.5"
         id="path296"
         style="fill:none;stroke:#1c4599;stroke-width:10;stroke-linecap:butt;stroke-linejoin:miter;stroke-miterlimit:3.79999995;stroke-opacity:1;stroke-dasharray:none" /><path
         d="m 1811.75,1992.25 31.5,31.5"
         id="path298"
         style="fill:none;stroke:#1c4599;stroke-width:10;stroke-linecap:butt;stroke-linejoin:miter;stroke-miterlimit:3.79999995;stroke-opacity:1;stroke-dasharray:none" /><g
         transform="scale(10,10)"
         id="g300"><text
           transform="matrix(1,0,0,-1,64.5504,184.8)"
           id="text302"><tspan
             x="0 6.6719999 13.344 16.68 19.344 29.34 36.012001 38.675999 42.012001 48.012001 54.683998 61.355999 68.028 74.699997 81.708 88.379997"
             y="0"
             id="tspan304"
             style="font-size:12px;font-variant:normal;font-weight:normal;writing-mode:lr-tb;fill:#000000;fill-opacity:1;fill-rule:nonzero;stroke:none;font-family:Helvetica;-inkscape-font-specification:Helvetica">optimal speed−up</tspan></text>
</g><path
         d="m 1668,1888 319.5,0 M 516,384 l 29,18 29,18 29,18 29,17.5 29,18 29,18 29,18 28.5,18 29,18 29,18 29,18 29,17.5 29,18 29,18 29,18 29,18 29,18 29,18 29,18 29,17.5 29,18 28.5,18 29,18 29,18 29,18 29,18 29,17.5 29,18 29,18 29,18 29,18 29,18 29,18 29,18 29,17.5 28.5,18 29,18 29,18 29,18 29,18 29,18 29,17.5 29,18 29,18 29,18 29,18 29,18 29,18 29,18 28.5,17.5 29,18 29,18 29,18 29,18 29,18 29,18 29,18 29,17.5 29,18 29,18 29,18 29,18 29,18 28.5,18 29,17.5 29,18 29,18 29,18 29,18 29,18 29,18 29,18 29,17.5 29,18 29,18 29,18 29,18 28.5,18 29,18 29,17.5 29,18 29,18 29,18 29,18 29,18 29,18 29,18 29,17.5 29,18 29,18 29,18 28.5,18 29,18 29,18 29,18 29,17.5 29,18 29,18 29,18"
         id="path306"
         style="fill:none;stroke:#e62b17;stroke-width:5;stroke-linecap:butt;stroke-linejoin:miter;stroke-miterlimit:3.79999995;stroke-opacity:1;stroke-dasharray:none" /><path
         d="m 516,384 2867.5,0 0,1775.5 -2867.5,0 0,-1775.5 z"
         id="path308"
         style="fill:none;stroke:#6b6b6b;stroke-width:7.5;stroke-linecap:butt;stroke-linejoin:miter;stroke-miterlimit:3.79999995;stroke-opacity:1;stroke-dasharray:none" /></g></g></svg>